<svg version="1.1" id="Layer_1" xmlns="http://www.w3.org/2000/svg" xmlns:xlink="http://www.w3.org/1999/xlink" x="0px" y="0px"
	 width="100%" viewBox="0 0 200 200" enable-background="new 0 0 200 200" xml:space="preserve">
<path fill="#FEFEFE" opacity="1.000000" stroke="none" 
	d="
M134.000000,201.000000 
	C89.333336,201.000000 45.166672,201.000000 1.000004,201.000000 
	C1.000000,135.666672 1.034228,70.333275 0.903356,5.000213 
	C0.896496,1.575547 1.575389,0.896242 5.000179,0.903287 
	C68.999908,1.034933 133.000046,1.034930 196.999771,0.903294 
	C200.424454,0.896250 201.103775,1.575354 201.096710,5.000167 
	C200.965057,68.999893 200.965088,133.000031 201.096710,196.999756 
	C201.103775,200.424408 200.429428,201.135345 196.999054,201.101761 
	C176.167709,200.897705 155.333344,201.000000 134.000000,201.000000 
z"/>
<path fill="#050505" opacity="1.000000" stroke="none" 
	d="
M119.626404,73.373306 
	C123.166389,73.648621 126.313606,73.740479 129.461472,73.789726 
	C135.437958,73.883232 138.031616,76.265129 137.880508,82.227036 
	C137.788681,85.849609 136.998169,89.454460 136.480133,93.506157 
	C136.966095,98.016182 136.604523,102.025139 135.339417,106.349945 
	C134.334763,107.428841 133.448471,107.940910 132.409027,107.836037 
	C124.130074,107.000786 115.836441,107.831299 110.283112,107.522530 
	C114.756142,107.464729 121.959282,107.539192 129.568481,107.512421 
	C130.473770,107.571228 131.048721,107.647842 131.294617,108.082954 
	C132.902740,110.928368 133.129623,114.419029 135.352203,117.314308 
	C134.863464,117.950943 134.448135,118.222397 134.034393,118.749008 
	C132.911346,120.204163 131.763840,119.394638 130.317474,118.997726 
	C123.441696,118.984871 116.869987,119.017288 109.861107,119.119781 
	C104.617630,117.076988 101.290016,113.181015 97.547607,109.254761 
	C97.209312,108.542770 97.089302,108.098030 96.833672,107.333755 
	C95.384468,104.841393 95.365059,102.414825 95.430260,99.610489 
	C97.911911,97.021713 100.276848,94.607101 103.055786,99.278191 
	C103.478363,100.217606 103.144722,99.406502 103.402962,100.021118 
	C103.579491,100.441231 103.798279,100.844810 103.894585,101.295799 
	C103.975533,100.890198 103.735298,100.556770 103.500092,99.859833 
	C102.730980,98.407356 102.453644,97.163986 102.004074,95.545273 
	C101.513634,91.201797 101.057297,87.258064 100.772049,83.312889 
	C100.349869,77.473991 103.266159,73.765892 108.624275,73.399261 
	C110.727196,73.652374 112.436081,73.712265 114.562927,73.674591 
	C116.341171,72.840851 117.747108,72.582581 119.626404,73.373306 
z"/>
<path fill="#F6F7F5" opacity="1.000000" stroke="none" 
	d="
M109.019051,73.204803 
	C103.549919,74.814079 101.567169,77.753845 102.133499,83.980667 
	C102.471565,87.697853 103.794731,91.337845 103.054512,95.598022 
	C100.437523,95.528831 98.087669,95.931549 96.341873,98.758240 
	C96.348503,101.402725 96.563576,103.799789 96.738358,106.605530 
	C95.496162,106.941650 94.294266,106.869095 92.653595,106.687927 
	C89.466011,102.657829 84.736580,104.108215 80.850220,102.240601 
	C79.822266,100.788017 79.779800,99.505623 80.252930,97.814705 
	C80.675056,97.014107 81.014832,96.636444 81.723434,96.114098 
	C85.545448,92.948692 82.779083,89.726250 82.075218,86.841614 
	C81.488190,84.435791 78.723015,85.423309 76.840034,85.305000 
	C75.520332,85.222092 74.181084,85.345459 72.729156,86.318100 
	C72.257828,86.645523 72.077103,86.789055 71.598259,87.109711 
	C71.080078,87.355766 70.860031,87.424721 70.296188,87.511597 
	C68.160057,87.177406 66.401909,87.306778 64.344116,87.950394 
	C63.340157,88.002304 62.669056,88.007851 61.662384,88.011345 
	C57.279301,81.290314 59.007347,74.779541 62.350624,68.068085 
	C62.902531,67.714569 63.140560,67.608650 63.755424,67.464195 
	C64.370041,67.482323 64.607819,67.538994 65.133392,67.806732 
	C66.111061,68.892555 66.791832,69.778168 68.228317,70.274017 
	C68.900467,70.696480 69.192780,71.035736 69.498016,71.767220 
	C67.947296,75.093987 67.136719,77.951920 71.284355,80.011124 
	C70.985008,78.344894 69.515732,76.699425 70.955200,74.699738 
	C72.353539,73.805412 73.593231,73.763016 75.223190,73.871490 
	C75.833839,73.978920 76.072319,74.040688 76.646622,74.245102 
	C79.429085,76.690254 82.722466,77.755737 85.021820,75.460411 
	C87.762581,72.724434 92.121651,78.764900 94.183838,72.760712 
	C95.278778,69.572701 99.421806,67.571388 102.359283,64.790146 
	C103.166710,67.288933 101.873962,70.498940 106.666077,69.185104 
	C109.350288,68.449181 108.861572,71.160957 109.019051,73.204803 
z"/>
<path fill="#1B1A19" opacity="1.000000" stroke="none" 
	d="
M80.743607,102.074829 
	C83.970360,101.658836 86.838844,102.197151 89.630974,103.019600 
	C91.036743,103.433693 93.053276,103.556374 92.407646,106.277039 
	C85.580345,106.991776 89.140007,112.216331 88.141983,115.624496 
	C87.947128,117.087563 88.014336,118.331238 86.477867,118.963417 
	C84.288010,109.082977 84.211266,109.775818 74.419594,108.691208 
	C66.517799,107.815948 68.438622,113.468460 66.997787,117.567734 
	C65.463135,118.463142 65.183983,117.155655 64.337257,116.198959 
	C64.258812,114.977455 64.248894,113.972023 64.502136,113.037918 
	C65.364830,109.855743 65.446014,107.209549 61.226486,106.510010 
	C60.548618,106.397629 58.949600,106.284981 59.324173,104.854820 
	C59.554634,103.974892 60.307091,103.199615 61.399483,103.050949 
	C64.315254,102.654137 67.229996,102.249695 70.564575,101.761719 
	C72.257545,101.521988 72.722816,102.659508 73.812943,103.365982 
	C75.750359,103.868965 77.389191,103.964912 79.278625,103.198807 
	C79.839203,102.755615 80.146019,102.479225 80.743607,102.074829 
z"/>
<path fill="#EAEAEA" opacity="1.000000" stroke="none" 
	d="
M134.288788,153.797684 
	C133.040848,157.268295 130.593796,157.388550 128.007492,156.762970 
	C126.608421,156.424530 125.283440,154.750519 126.521820,153.848190 
	C131.144547,150.479950 127.344765,149.104126 125.327705,147.163010 
	C125.037788,146.884003 125.112907,146.225693 125.006187,145.400604 
	C125.466385,141.646561 128.933838,138.440842 125.439095,134.547028 
	C125.123940,133.064453 124.460487,131.205475 125.620132,130.726593 
	C128.279388,129.628479 129.087387,133.051224 131.472565,133.796478 
	C133.094955,134.858398 132.407028,136.020157 132.123428,137.083679 
	C131.724014,138.581528 131.415344,140.273010 132.500427,141.361084 
	C133.919876,142.784470 135.055450,140.575409 136.711395,140.321274 
	C137.820663,139.545151 138.718674,139.004868 138.927795,137.564865 
	C138.857010,136.434052 138.684128,135.616425 138.835953,134.485992 
	C139.053131,133.259415 139.235382,132.380142 140.662567,132.051514 
	C141.857056,132.612473 142.721741,133.230820 143.891083,133.967773 
	C146.151657,137.301147 145.672668,140.642197 144.405731,144.364548 
	C143.534561,145.949417 142.252411,146.315186 141.231415,146.307877 
	C136.233368,146.272171 135.242401,149.704819 134.288788,153.797684 
z"/>
<path fill="#050505" opacity="1.000000" stroke="none" 
	d="
M143.569916,97.772133 
	C144.094925,102.566116 143.339264,106.974480 141.745132,111.639015 
	C141.168732,112.331017 140.749512,112.559174 139.901031,112.664291 
	C139.297226,112.564262 139.062866,112.481575 138.517883,112.189720 
	C136.766800,110.583145 135.072754,109.333755 135.412415,106.608803 
	C136.786179,102.757561 136.126892,98.937431 137.697693,95.172791 
	C139.194885,94.279160 140.373062,94.516815 141.791885,95.348763 
	C142.298874,96.395050 142.949646,96.892570 143.569916,97.772133 
z"/>
<path fill="#282828" opacity="1.000000" stroke="none" 
	d="
M63.627487,67.733276 
	C59.756401,73.895981 59.696335,80.477036 61.173965,87.616425 
	C61.231598,88.793732 61.529987,89.973007 60.626949,90.175766 
	C58.974087,90.546867 58.969006,89.048096 58.717964,87.972641 
	C56.879822,80.098259 57.893055,72.560112 61.492428,65.362946 
	C62.224915,63.898285 63.204571,62.557236 64.345413,60.980152 
	C64.937218,60.576511 65.282486,60.529068 65.864548,60.810951 
	C66.156754,61.152222 66.236847,61.317070 66.324738,61.755432 
	C66.253502,62.380718 66.163849,62.729736 66.000137,63.334839 
	C65.852989,63.938572 65.746330,64.276260 65.487503,64.835739 
	C65.237221,65.186752 65.114906,65.308228 64.784180,65.566635 
	C64.575775,65.703552 64.170700,65.955765 64.170700,65.955765 
	C64.170700,65.955765 64.425858,66.369644 64.466141,66.634460 
	C64.454063,67.283066 64.244881,67.553360 63.627487,67.733276 
z"/>
<path fill="#3D3D3D" opacity="1.000000" stroke="none" 
	d="
M144.523529,144.872253 
	C144.133575,141.474152 144.166031,138.227493 144.197113,134.533630 
	C147.043961,133.773544 149.908112,133.272659 152.748810,134.512787 
	C152.524490,134.944824 152.464523,135.103210 152.369598,135.236725 
	C150.972458,137.201599 147.309982,134.408676 147.055252,137.032639 
	C146.783951,139.827133 151.137253,136.798248 151.881195,139.541138 
	C150.688309,141.441925 147.002792,139.068375 147.030869,141.532608 
	C147.070663,145.026978 151.577301,141.382553 152.962646,144.716873 
	C150.233597,145.514938 147.582092,145.202789 144.523529,144.872253 
z"/>
<path fill="#E4E4E4" opacity="1.000000" stroke="none" 
	d="
M83.427376,142.632599 
	C84.413177,144.984116 83.343246,146.327194 82.335396,147.905670 
	C81.298027,149.530380 78.973694,151.884995 82.950226,153.200760 
	C83.628723,153.425262 83.956299,154.072113 83.735382,154.805008 
	C83.381096,155.980331 82.536552,155.613251 81.738647,155.378143 
	C79.601868,154.748505 76.034042,156.686172 76.060760,152.121170 
	C76.064201,151.532471 74.918640,151.342834 76.407684,150.673386 
	C79.449402,149.305817 79.962051,147.240463 76.344849,145.159851 
	C75.426048,141.041656 75.819008,140.776993 81.185188,141.872223 
	C81.975609,142.035477 82.424950,142.134430 83.427376,142.632599 
z"/>
<path fill="#282828" opacity="1.000000" stroke="none" 
	d="
M114.246391,61.171921 
	C113.358673,60.016697 112.655579,59.182919 111.637680,58.238068 
	C108.982330,57.953213 107.525459,56.081299 105.298691,54.984020 
	C104.443832,54.512154 103.881279,54.184132 103.008820,53.734940 
	C101.939316,53.132084 101.209961,52.625084 100.552757,51.561653 
	C100.346733,50.796108 100.386292,50.350708 100.742332,49.654800 
	C107.161224,52.184593 113.460732,54.812691 117.452499,60.805000 
	C118.549568,62.451874 120.043633,63.936535 118.863190,66.381409 
	C115.152985,66.702919 115.394295,63.588970 114.246391,61.171921 
z"/>
<path fill="#282828" opacity="1.000000" stroke="none" 
	d="
M125.238098,134.742188 
	C126.105888,134.042786 127.522835,133.521652 127.542618,134.901932 
	C127.590393,138.234451 128.696625,141.903946 125.245392,144.821152 
	C123.538803,145.030823 122.084312,145.003326 120.316711,144.978943 
	C117.855576,144.345200 116.972641,142.914429 117.470474,140.336365 
	C117.653069,138.915146 117.687805,137.867508 117.665909,136.429886 
	C117.393372,135.548706 117.363091,135.046295 117.748917,134.221161 
	C120.922859,133.692490 119.727669,135.921539 119.990936,137.298843 
	C120.403114,139.455200 118.772469,143.098434 122.657051,142.955750 
	C126.047798,142.831207 125.250633,139.489471 125.310738,137.133835 
	C125.327477,136.477890 125.303970,135.820923 125.238098,134.742188 
z"/>
<path fill="#131313" opacity="1.000000" stroke="none" 
	d="
M61.749813,134.323242 
	C62.011028,136.534302 62.035194,138.362717 62.037785,140.191147 
	C62.040993,142.458588 63.633312,142.793823 65.371216,142.956039 
	C67.389023,143.144379 68.005135,141.897842 68.052490,140.211563 
	C68.110222,138.155807 68.066216,136.097214 68.066216,133.214386 
	C70.814507,136.753372 70.894218,142.217834 68.708588,143.992599 
	C66.563858,145.734161 64.009483,145.791763 61.825043,144.255295 
	C59.279926,142.465134 59.256729,136.752380 61.749813,134.323242 
z"/>
<path fill="#0D0D0D" opacity="1.000000" stroke="none" 
	d="
M138.949615,111.661255 
	C139.631699,111.992294 140.259872,111.980019 141.202209,111.972069 
	C140.472321,114.627197 138.350693,116.167885 135.604065,117.539642 
	C134.005264,114.751907 130.154709,113.119690 130.988037,108.782692 
	C131.460892,106.651833 133.134018,108.018326 134.315216,107.100876 
	C134.847946,106.820671 135.065826,106.717766 135.619553,106.748428 
	C135.700089,109.179535 138.247620,109.619232 138.949615,111.661255 
z"/>
<path fill="#EAEAEA" opacity="1.000000" stroke="none" 
	d="
M117.306030,140.038452 
	C117.930717,141.597534 118.161011,143.268051 119.783722,144.704849 
	C120.102707,146.226349 119.728256,147.411377 121.807373,147.797501 
	C124.142883,148.231201 123.348686,151.367432 122.777977,151.743301 
	C120.557175,153.205948 121.643402,150.850006 121.106560,150.082458 
	C119.822807,148.247070 112.921989,151.189789 111.373650,154.463806 
	C110.978127,152.283661 110.652451,150.488541 110.314156,148.623810 
	C116.070099,149.209030 116.029816,149.213120 115.399323,142.996765 
	C115.280708,141.827240 115.950638,140.793991 117.306030,140.038452 
z"/>
<path fill="#42361A" opacity="1.000000" stroke="none" 
	d="
M66.481865,62.159279 
	C65.847977,61.765923 65.543846,61.430328 64.930122,60.947922 
	C67.960060,55.690151 72.677322,52.311897 78.591187,49.997856 
	C79.636047,50.032848 80.285820,50.157829 81.045578,50.850986 
	C81.304970,52.169418 80.569168,52.728886 79.641441,53.540253 
	C76.347313,55.572475 73.978737,58.282387 70.656113,60.272865 
	C69.227257,61.118061 68.160942,61.955173 66.481865,62.159279 
z"/>
<path fill="#1B1A19" opacity="1.000000" stroke="none" 
	d="
M82.365761,142.703613 
	C81.380943,144.372528 80.897110,144.208466 79.782417,143.020096 
	C78.134377,141.263153 76.387474,140.935394 76.135193,144.642441 
	C71.985138,142.597824 75.022896,138.731522 74.199966,135.631927 
	C73.796967,134.113968 75.243355,133.913223 76.458931,133.883865 
	C79.257607,133.816299 82.169502,133.500793 83.174690,137.586243 
	C83.510254,138.369843 83.648460,138.800858 83.679718,139.601868 
	C83.454346,140.843979 83.127174,141.688080 82.365761,142.703613 
z"/>
<path fill="#F6F7F5" opacity="1.000000" stroke="none" 
	d="
M104.661263,53.990646 
	C107.460007,54.454182 109.279869,56.009693 111.216080,57.838039 
	C109.166779,60.800533 107.479080,63.986889 103.401550,64.998230 
	C103.000435,65.000504 102.986023,64.986992 102.978790,64.980270 
	C101.183830,62.778744 103.158112,60.308220 102.381805,57.680733 
	C102.237793,56.844975 102.242104,56.361942 102.417053,55.531952 
	C102.942383,54.526237 103.555260,54.177788 104.661263,53.990646 
z"/>
<path fill="#282828" opacity="1.000000" stroke="none" 
	d="
M138.587921,134.134888 
	C139.247498,134.826965 139.545532,135.463043 139.842590,136.380508 
	C139.708740,137.423676 139.156387,137.625961 138.498749,137.606064 
	C134.543991,137.486374 137.046295,139.266693 137.793076,140.802109 
	C134.290878,142.338318 134.290878,142.338318 132.368851,145.382812 
	C131.093918,141.661285 131.533356,138.148804 131.719116,134.314407 
	C133.912201,134.003937 136.069290,134.041412 138.587921,134.134888 
z"/>
<path fill="#1F1208" opacity="1.000000" stroke="none" 
	d="
M81.561005,51.387978 
	C80.578545,50.945190 79.961586,50.744125 79.149628,50.278656 
	C85.973068,46.585709 93.196159,47.378124 100.710876,49.184319 
	C100.957550,49.863441 100.951454,50.329884 100.914902,51.144836 
	C97.970085,53.048031 95.111984,51.226330 92.201912,51.288246 
	C88.774689,51.361164 85.360512,51.884266 81.561005,51.387978 
z"/>
<path fill="#131313" opacity="1.000000" stroke="none" 
	d="
M54.486031,138.937866 
	C55.477909,139.169891 56.452991,139.329391 56.500427,139.633545 
	C56.674568,140.750153 55.726807,140.933228 54.892101,140.868729 
	C52.704121,140.699631 50.881050,140.827606 51.251827,143.831955 
	C51.340309,144.548920 50.793716,145.008881 50.003456,144.877197 
	C49.130661,144.731750 49.157825,143.994247 49.151577,143.363754 
	C49.127083,140.892380 49.169754,138.420105 49.126480,135.949234 
	C49.101555,134.525955 49.626396,133.823441 51.140808,133.883423 
	C52.941181,133.954742 54.746540,133.900208 56.592529,133.900208 
	C56.495701,136.192535 54.940441,135.929459 53.589359,136.048035 
	C52.554672,136.138855 51.077988,135.718155 51.349957,137.651764 
	C51.598888,139.421661 53.026211,138.754898 54.486031,138.937866 
z"/>
<path fill="#0D0D0D" opacity="1.000000" stroke="none" 
	d="
M97.246071,109.236122 
	C100.408707,107.862320 100.552010,111.589272 102.706306,112.520676 
	C104.878914,113.460007 107.942612,115.602432 109.071388,119.026817 
	C109.321899,119.589424 109.219864,119.988998 108.992462,120.671677 
	C107.930214,121.841766 106.857964,122.004501 105.336449,121.276230 
	C105.730026,119.155914 105.048347,118.083427 103.377838,117.051147 
	C101.743599,116.041283 100.437958,114.499664 98.718079,113.011200 
	C97.305244,112.564095 96.887306,111.727127 96.916840,110.336838 
	C97.110847,109.830444 97.136833,109.657593 97.246071,109.236122 
z"/>
<path fill="#282828" opacity="1.000000" stroke="none" 
	d="
M108.696457,133.543488 
	C111.043694,133.828857 113.055244,133.979156 115.411903,134.396225 
	C115.684662,134.927002 115.612328,135.191010 115.211349,135.701202 
	C112.502945,135.467133 111.736404,136.395096 111.786575,138.827866 
	C111.829391,140.903564 112.663490,143.292725 110.854080,145.175125 
	C108.960800,144.279602 109.640343,142.767380 109.624596,141.583908 
	C109.586952,138.754501 110.275146,135.630798 106.047455,135.180740 
	C106.157265,134.761398 106.267075,134.342041 106.672485,133.805618 
	C107.406441,133.466553 107.871964,133.379578 108.696457,133.543488 
z"/>
<path fill="#F3F1DE" opacity="1.000000" stroke="none" 
	d="
M73.259224,104.494576 
	C71.305634,104.493958 72.476547,102.730385 71.266899,101.868965 
	C70.896973,100.723251 71.050499,99.267326 69.906822,99.237396 
	C64.278000,99.090096 67.076385,95.816460 67.899277,93.152740 
	C68.601540,92.634384 69.049286,92.495995 69.882812,92.701599 
	C71.120888,94.537674 72.299866,95.959694 74.304367,97.110718 
	C75.552887,99.872017 75.161713,102.131126 73.259224,104.494576 
z"/>
<path fill="#131313" opacity="1.000000" stroke="none" 
	d="
M93.225594,141.846146 
	C92.309486,141.578537 91.652954,141.045593 90.795990,140.130508 
	C89.407791,139.738556 89.375458,140.526108 89.375488,141.714447 
	C88.784050,142.947128 89.849701,144.506653 88.189438,144.907242 
	C87.421013,145.092667 87.031433,144.531357 86.894997,143.397888 
	C85.611267,141.359756 85.483856,139.606400 86.607407,137.375244 
	C87.947899,136.281509 84.683449,133.546753 88.603058,134.010590 
	C91.716393,135.153381 92.990135,137.452805 93.752808,140.510941 
	C93.651505,141.114700 93.568336,141.347763 93.225594,141.846146 
z"/>
<path fill="#E4E4E4" opacity="1.000000" stroke="none" 
	d="
M101.113235,148.122101 
	C106.404137,148.360794 104.703995,152.534622 105.394493,155.830795 
	C103.434082,152.423492 100.728981,155.031784 98.508858,154.617081 
	C97.905388,151.859741 100.171906,150.419327 101.113235,148.122101 
z"/>
<path fill="#212121" opacity="1.000000" stroke="none" 
	d="
M100.645256,135.317413 
	C101.642616,133.762329 103.002510,133.367172 103.076988,135.075455 
	C103.221527,138.390289 103.852844,141.843582 102.403381,145.679916 
	C100.038353,142.984146 101.449883,140.271240 100.925377,137.447205 
	C100.581818,136.591644 100.453316,136.139084 100.645256,135.317413 
z"/>
<path fill="#545454" opacity="1.000000" stroke="none" 
	d="
M64.014465,116.338943 
	C65.324783,115.942146 65.856422,116.788033 66.639923,117.791199 
	C66.605774,119.855484 66.305199,121.766167 66.030289,123.680542 
	C65.891151,124.649475 65.879257,125.783531 64.474876,125.604355 
	C63.339531,125.459496 62.814152,124.606346 62.947388,123.494072 
	C63.218147,121.233772 63.565193,118.982613 64.014465,116.338943 
z"/>
<path fill="#6B6B6B" opacity="1.000000" stroke="none" 
	d="
M86.058685,119.278763 
	C86.637978,118.044792 87.142044,117.177528 87.909897,116.142380 
	C89.797585,118.164513 89.836990,120.734749 89.982491,123.297234 
	C90.059021,124.644997 89.595917,125.818733 88.249908,125.701981 
	C86.144211,125.519325 87.873825,124.167572 87.695496,123.452370 
	C87.376427,122.172768 85.728302,121.332855 86.058685,119.278763 
z"/>
<path fill="#D0D0D0" opacity="1.000000" stroke="none" 
	d="
M136.005661,106.514740 
	C135.955414,106.882004 135.507843,107.033524 135.272400,107.053200 
	C134.904221,106.792686 134.771469,106.512489 134.785080,105.790848 
	C134.480545,101.670815 136.034073,98.207413 136.262970,94.263992 
	C136.825150,94.088135 137.211594,94.231232 137.784164,94.630386 
	C137.332184,98.640129 136.694046,102.393799 136.005661,106.514740 
z"/>
<path fill="#E4E4E4" opacity="1.000000" stroke="none" 
	d="
M91.292206,156.026215 
	C90.688927,153.823700 91.982567,151.215317 88.943695,150.254822 
	C88.856667,150.227325 86.620232,148.781998 88.263199,147.534592 
	C89.282082,146.761017 90.442688,145.869873 91.876114,146.276733 
	C93.133568,146.633667 93.271118,148.007767 92.868668,148.723755 
	C91.510536,151.140015 94.232086,154.250580 91.292206,156.026215 
z"/>
<path fill="#E0E0E0" opacity="1.000000" stroke="none" 
	d="
M93.494026,141.013489 
	C92.474648,138.274704 90.582047,136.630051 89.117699,134.318375 
	C90.760391,132.485550 92.570953,134.098434 94.742485,134.032532 
	C96.604584,136.804016 97.268715,139.412613 93.494026,141.013489 
z"/>
<path fill="#A48C6F" opacity="1.000000" stroke="none" 
	d="
M70.237495,93.273155 
	C69.513092,93.019051 69.138695,92.981888 68.482498,92.940918 
	C67.267929,91.732811 71.080231,90.737106 68.200912,89.212746 
	C67.588661,87.676643 68.528709,87.457642 69.753143,87.225586 
	C70.271271,87.204224 70.449387,87.153168 70.893661,87.022018 
	C72.928993,86.783943 73.511749,87.994431 74.011803,89.776382 
	C74.069496,91.334038 73.818420,92.387100 72.578354,93.400925 
	C71.659973,93.714157 71.118805,93.680290 70.237495,93.273155 
z"/>
<path fill="#1B1A19" opacity="1.000000" stroke="none" 
	d="
M93.084000,141.054977 
	C97.043839,139.813171 93.849113,136.651321 95.047836,134.463318 
	C96.733612,133.533905 96.916039,134.973053 97.886696,135.858704 
	C99.092270,135.336349 99.433830,135.555771 98.757835,136.342163 
	C95.846779,137.341522 97.453934,139.542557 96.891022,141.617371 
	C96.184235,142.705505 95.546303,143.364029 94.211624,143.196564 
	C93.551308,143.036087 93.287872,142.879929 93.041908,142.338867 
	C92.991150,141.876556 93.016281,141.641663 93.084000,141.054977 
z"/>
<path fill="#F6F7F5" opacity="1.000000" stroke="none" 
	d="
M113.993576,61.202183 
	C116.088036,62.101444 116.650154,64.520042 118.494690,66.346146 
	C117.491508,66.937508 115.826820,68.846085 115.086922,66.722832 
	C114.182655,64.127853 111.880844,65.293266 110.452698,64.430077 
	C110.765228,62.217472 113.726730,63.636585 113.993576,61.202183 
z"/>
<path fill="#464646" opacity="1.000000" stroke="none" 
	d="
M104.774933,121.266312 
	C106.033028,121.006241 107.063911,121.012192 108.480957,120.986458 
	C108.843086,124.311806 104.694443,124.138451 104.135399,128.069977 
	C102.521744,124.841896 104.285004,123.284805 104.774933,121.266312 
z"/>
<path fill="#1B1A19" opacity="1.000000" stroke="none" 
	d="
M130.174255,119.259735 
	C131.138229,117.368286 132.264282,118.964790 133.712860,118.977646 
	C135.076111,120.563210 136.284866,122.808853 134.060730,123.561966 
	C131.252716,124.512779 131.457260,121.082642 130.174255,119.259735 
z"/>
<path fill="#EAEAEA" opacity="1.000000" stroke="none" 
	d="
M86.545731,137.020462 
	C86.914383,138.715591 86.972313,140.446213 86.923660,142.597900 
	C86.109329,143.008224 85.401566,142.997513 84.339798,142.997345 
	C83.985802,143.007874 84.000572,143.002197 83.997078,143.008392 
	C83.280769,142.385452 83.029831,141.563263 82.986649,140.316620 
	C83.044533,139.540405 83.119804,139.094559 83.235214,138.309875 
	C84.261902,137.666000 85.248459,137.360992 86.545731,137.020462 
z"/>
<path fill="#F3F1DE" opacity="1.000000" stroke="none" 
	d="
M69.882538,86.946243 
	C69.538086,87.697548 68.983025,88.139824 68.237991,88.776810 
	C66.857407,88.829803 65.666786,88.688080 64.243713,88.271561 
	C65.415298,85.533157 67.420654,85.573204 69.882538,86.946243 
z"/>
<path fill="#F6F7F5" opacity="1.000000" stroke="none" 
	d="
M120.005600,73.231659 
	C118.613396,73.647629 117.207916,73.719254 115.391663,73.683952 
	C116.306160,70.838821 117.780273,69.182213 120.005600,73.231659 
z"/>
<path fill="#EAEAEA" opacity="1.000000" stroke="none" 
	d="
M115.222061,135.984558 
	C115.002106,135.715454 115.121513,135.483536 115.498962,134.957306 
	C116.112190,133.855042 115.759903,132.594910 117.055748,132.418182 
	C117.301758,132.384613 117.639359,133.022583 117.957146,133.630188 
	C117.923714,134.387024 117.867828,134.864380 117.710617,135.690826 
	C116.926666,136.033859 116.244049,136.027802 115.222061,135.984558 
z"/>
<path fill="#F6F7F5" opacity="1.000000" stroke="none" 
	d="
M96.751411,110.048492 
	C97.487251,110.737785 97.889633,111.472267 98.370049,112.518845 
	C96.859924,112.594513 94.249771,113.116058 96.751411,110.048492 
z"/>
<path fill="#131313" opacity="1.000000" stroke="none" 
	d="
M93.975449,143.374176 
	C94.665718,142.713257 95.423325,142.391815 96.489586,142.038467 
	C96.844902,142.455643 96.891563,142.904724 96.857635,143.684204 
	C96.678696,144.178635 96.580353,144.342682 96.243896,144.666779 
	C94.995842,145.082825 94.157021,145.037094 93.975449,143.374176 
z"/>
<path fill="#EAEAEA" opacity="1.000000" stroke="none" 
	d="
M118.132492,153.697632 
	C117.220894,153.942932 116.553909,153.899918 116.468132,153.025330 
	C116.449165,152.831985 116.814171,152.433441 117.026924,152.415161 
	C117.776772,152.350723 118.263779,152.729446 118.132492,153.697632 
z"/>
<path fill="#EAEAEA" opacity="1.000000" stroke="none" 
	d="
M108.986496,133.412048 
	C108.571053,133.735886 108.109962,133.793213 107.308472,133.769531 
	C107.303886,132.338501 107.809547,131.605530 108.986496,133.412048 
z"/>
<path fill="#E4E4E4" opacity="1.000000" stroke="none" 
	d="
M72.237610,150.609512 
	C71.121613,150.042252 71.887383,149.497177 72.150406,149.000793 
	C72.365341,148.595184 72.819649,148.708344 72.832695,149.175598 
	C72.845352,149.628357 72.606819,150.088120 72.237610,150.609512 
z"/>
<path fill="#E0E0E0" opacity="1.000000" stroke="none" 
	d="
M89.724899,141.524506 
	C89.158760,140.832840 88.629143,139.609146 89.487610,138.461746 
	C89.851067,138.747726 90.214516,139.033707 90.586761,139.534027 
	C90.449898,140.170334 90.304245,140.592331 89.724899,141.524506 
z"/>
<path fill="#F6F7F5" opacity="1.000000" stroke="none" 
	d="
M98.641632,136.384521 
	C98.247520,136.134903 98.352455,135.949020 98.300964,135.915512 
	C98.797707,135.620209 99.345947,135.358414 100.349373,135.043976 
	C100.873436,135.440155 100.942307,135.888962 100.930733,136.672287 
	C100.245438,136.882584 99.640594,136.758362 98.641632,136.384521 
z"/>
<path fill="#0D0D0D" opacity="1.000000" stroke="none" 
	d="
M143.776901,97.685173 
	C142.742752,97.867897 142.112320,97.359543 142.050522,95.953201 
	C143.058685,95.771584 143.427536,96.572250 143.776901,97.685173 
z"/>
<path fill="#EAEAEA" opacity="1.000000" stroke="none" 
	d="
M132.989319,131.043915 
	C133.569672,131.189011 134.409576,131.096008 133.842987,131.700272 
	C133.561951,132.000000 132.462677,132.010590 132.165344,131.716064 
	C131.569946,131.126312 132.408707,131.193588 132.989319,131.043915 
z"/>
<path fill="#EAEAEA" opacity="1.000000" stroke="none" 
	d="
M110.954544,157.598373 
	C110.222481,157.200241 110.218895,156.798050 110.735512,156.441666 
	C110.843803,156.366974 111.096825,156.369751 111.203110,156.446976 
	C111.711021,156.816116 111.695328,157.217804 110.954544,157.598373 
z"/>
<path fill="#F6F7F5" opacity="1.000000" stroke="none" 
	d="
M120.271233,159.119293 
	C120.749489,159.219696 121.000481,159.360123 121.251472,159.500549 
	C121.000748,159.640579 120.744179,159.903488 120.500656,159.891922 
	C120.132523,159.874435 119.432228,159.869736 120.271233,159.119293 
z"/>
<path fill="#E4E4E4" opacity="1.000000" stroke="none" 
	d="
M86.356140,155.256592 
	C86.370949,155.005508 86.502052,154.869583 86.633163,154.733673 
	C86.579582,154.946365 86.526001,155.159058 86.356140,155.256592 
z"/>
<path fill="#1B1A19" opacity="1.000000" stroke="none" 
	d="
M96.264412,144.862854 
	C96.088379,144.575012 96.232498,144.365524 96.607590,144.106491 
	C96.692375,144.309357 96.607712,144.604126 96.264412,144.862854 
z"/>
<path fill="#D0D0D0" opacity="1.000000" stroke="none" 
	d="
M138.517975,92.532501 
	C138.480194,92.553543 138.555756,92.511459 138.517975,92.532501 
z"/>
<path fill="#E4E4E4" opacity="1.000000" stroke="none" 
	d="
M96.458107,155.528427 
	C96.429359,155.478958 96.486855,155.577896 96.458107,155.528427 
z"/>
<path fill="#EAEAEA" opacity="1.000000" stroke="none" 
	d="
M141.003006,132.003845 
	C141.094757,131.968140 141.183502,131.928574 141.132309,131.941574 
	C140.992371,131.994125 141.000000,132.000000 141.003006,132.003845 
z"/>
<path fill="#F6F7F5" opacity="1.000000" stroke="none" 
	d="
M115.945305,157.860931 
	C115.874565,157.860077 115.752769,157.715286 115.630966,157.570496 
	C115.718727,157.619324 115.806488,157.668152 115.945305,157.860931 
z"/>
<path fill="#F6F7F5" opacity="1.000000" stroke="none" 
	d="
M116.002289,157.998199 
	C116.125603,158.141220 116.246613,158.286026 116.367630,158.430847 
	C116.280357,158.381775 116.193092,158.332718 116.051086,158.144257 
	C115.996353,158.004883 116.000000,158.000000 116.002289,157.998199 
z"/>
<path fill="#FEFEFE" opacity="1.000000" stroke="none" 
	d="
M134.573853,105.598991 
	C134.927292,105.637978 134.923141,105.926552 134.977966,106.644005 
	C134.243698,108.386429 132.877884,108.014839 131.347656,108.317917 
	C122.449471,108.430229 113.906776,108.430229 105.364075,108.430229 
	C105.364166,107.889854 105.364258,107.349480 105.364342,106.809105 
	C113.431389,106.809105 121.498489,106.825729 129.565414,106.794952 
	C131.160629,106.788864 132.919434,107.395973 134.573853,105.598991 
z"/>
<path fill="#0D0D0D" opacity="1.000000" stroke="none" 
	d="
M96.471924,98.995239 
	C97.628502,94.244049 98.918892,93.643562 102.792130,96.059616 
	C104.310471,96.821121 103.972885,98.028549 104.018173,99.465790 
	C103.848778,99.992325 103.685829,100.176025 103.209145,100.166725 
	C101.196098,97.619507 99.129158,97.527420 96.471924,98.995239 
z"/>
<path fill="#D0D0D0" opacity="1.000000" stroke="none" 
	d="
M119.365952,92.832840 
	C120.133873,90.761856 116.622749,90.447479 117.959755,88.809570 
	C118.789398,87.793205 119.870270,87.929276 121.371506,88.574890 
	C125.629677,90.406113 119.623878,89.933800 120.867828,91.242783 
	C120.730431,92.417267 120.327522,92.971970 119.365952,92.832840 
z"/>
<path fill="#D0D0D0" opacity="1.000000" stroke="none" 
	d="
M102.912689,100.388168 
	C103.079926,99.935776 103.264435,99.897827 103.730339,99.834259 
	C105.542152,101.647591 105.116974,103.720505 104.793655,106.154808 
	C102.799492,104.605858 103.340881,102.532631 102.912689,100.388168 
z"/>
<path fill="#212121" opacity="1.000000" stroke="none" 
	d="
M119.165131,92.847618 
	C119.608482,92.231995 119.981400,91.983208 120.566116,91.656677 
	C120.892227,92.612488 121.590256,93.878784 120.124428,94.419167 
	C119.291328,94.726280 119.231750,93.807869 119.165131,92.847618 
z"/>
<path fill="#0D0D0D" opacity="1.000000" stroke="none" 
	d="
M107.741013,110.356346 
	C107.992188,110.371170 108.128952,110.504852 108.265717,110.638535 
	C108.052673,110.584091 107.839630,110.529648 107.741013,110.356346 
z"/>
<path fill="#E4BB4A" opacity="1.000000" stroke="none" 
	d="
M66.136795,62.097801 
	C67.125671,61.328526 68.099228,60.555538 69.391312,59.767723 
	C69.926048,59.864155 70.142250,59.975414 70.541542,60.402447 
	C71.045898,61.669647 70.977173,62.620777 70.603455,63.900898 
	C69.073540,66.650543 70.588280,67.939980 72.395325,69.068329 
	C75.912544,71.264542 79.691246,72.278099 84.168839,71.387207 
	C86.967842,70.975861 89.146156,70.055603 91.085114,67.893295 
	C91.552704,67.521240 91.751892,67.381393 92.278152,67.062431 
	C94.087318,66.278183 95.567139,65.826088 97.224396,67.302437 
	C97.611015,71.125534 94.476646,72.160629 92.436859,73.204231 
	C87.907120,75.521767 83.025192,77.507851 77.324532,75.363716 
	C76.968903,75.144005 76.557953,74.969185 76.334976,74.957199 
	C74.714767,74.198029 73.070374,74.531181 71.321671,73.818741 
	C70.384109,73.417366 69.856773,73.009758 69.268280,72.167923 
	C68.985497,71.570160 68.798134,71.321114 68.294281,71.057373 
	C67.251915,70.322685 66.172623,70.096581 65.246643,69.081062 
	C65.077919,68.817558 65.031143,68.409607 64.947464,68.222122 
	C64.426285,67.427032 64.527534,66.728806 64.645386,65.723045 
	C64.850227,64.965759 64.939163,64.532707 65.089401,63.772278 
	C65.190971,63.042393 65.356552,62.697430 65.872253,62.233681 
	C66.114845,62.065521 66.121483,62.094093 66.136795,62.097801 
z"/>
<path fill="#FCF5D7" opacity="1.000000" stroke="none" 
	d="
M77.045273,75.493919 
	C84.667862,75.463051 91.873878,74.415375 97.206718,67.219681 
	C97.720566,65.569107 98.399742,64.713593 98.811569,63.376850 
	C98.974220,62.871197 99.041481,62.669640 99.219566,62.169693 
	C99.647743,61.085190 99.965927,60.299389 100.345467,59.190857 
	C100.846664,58.094341 101.300201,57.357594 102.446442,56.928032 
	C105.514023,59.262554 102.986549,61.760715 102.985291,64.576950 
	C100.494934,67.814529 98.243057,70.850159 94.911530,72.866669 
	C93.793655,73.543297 94.486290,74.518654 95.382797,75.218338 
	C96.111023,75.786674 97.222916,76.447998 96.181953,77.533989 
	C95.527695,78.216553 94.621597,77.798462 93.937965,77.308304 
	C90.857162,75.099388 87.749382,75.748016 84.616203,77.155022 
	C81.826126,78.407951 79.223419,78.546097 77.045273,75.493919 
z"/>
<path fill="#F3F1DE" opacity="1.000000" stroke="none" 
	d="
M71.511528,86.398026 
	C74.471603,82.531677 78.660660,83.631378 82.438042,84.761932 
	C84.589485,85.405838 85.189949,93.944817 83.360275,96.917953 
	C80.618874,94.223503 82.022446,89.651772 78.073944,87.442093 
	C77.254356,87.378700 76.779823,87.354790 75.934402,87.325195 
	C74.273666,87.335678 73.043251,87.068680 71.511528,86.398026 
z"/>
<path fill="#F3F1DE" opacity="1.000000" stroke="none" 
	d="
M68.920868,72.218384 
	C69.609779,72.090408 70.141304,72.290436 70.840027,72.728683 
	C71.383499,73.359406 71.528297,73.824036 71.219437,74.672371 
	C70.776764,76.780380 71.508774,78.161819 72.790741,79.366341 
	C73.368614,79.909294 74.116554,80.733658 73.306648,81.439735 
	C72.609192,82.047775 71.566528,82.425545 70.628151,82.555168 
	C68.957512,82.785934 69.380112,81.656906 69.567871,80.659142 
	C69.645859,80.244682 69.486809,79.429794 69.271126,79.367653 
	C62.890572,77.529312 66.681427,74.977592 68.920868,72.218384 
z"/>
<path fill="#E1C45F" opacity="1.000000" stroke="none" 
	d="
M77.755096,86.661255 
	C80.471802,85.358742 81.008064,87.112663 81.536057,88.967949 
	C82.208527,91.330963 83.141922,93.635391 82.987076,96.576065 
	C82.529831,97.060066 82.079933,97.130684 81.300369,97.290932 
	C80.802620,97.218208 80.634544,97.055855 80.308136,96.580276 
	C79.622711,93.079613 78.846710,89.960587 77.755096,86.661255 
z"/>
<path fill="#E1C45F" opacity="1.000000" stroke="none" 
	d="
M71.143272,86.425064 
	C72.535057,86.202415 73.914146,86.152153 75.692024,86.220230 
	C76.856918,88.500519 76.196358,89.871689 73.607391,90.044464 
	C72.781166,88.930672 72.228424,88.097984 71.417755,87.103622 
	C71.159821,86.941933 71.130585,86.597458 71.143272,86.425064 
z"/>
<path fill="#F3F1DE" opacity="1.000000" stroke="none" 
	d="
M81.022964,101.550705 
	C80.985809,102.407600 80.950829,102.883469 80.802582,103.698425 
	C77.628487,102.360062 76.553307,100.195778 79.300949,96.958740 
	C79.828262,96.681328 80.059433,96.612022 80.636658,96.649002 
	C80.982704,96.755295 80.940804,97.066559 80.955750,97.223557 
	C80.988846,98.643593 81.006996,99.906631 81.022964,101.550705 
z"/>
<path fill="#FCF5D7" opacity="1.000000" stroke="none" 
	d="
M71.422058,74.991089 
	C70.997192,74.535858 70.997124,74.087784 71.002136,73.303307 
	C72.556526,73.451454 74.105820,73.936005 75.883560,74.682892 
	C74.690292,74.962898 73.268578,74.980576 71.422058,74.991089 
z"/>
<path fill="#FCF5D7" opacity="1.000000" stroke="none" 
	d="
M65.087296,69.187286 
	C65.987381,69.339554 66.896835,69.861549 67.939331,70.677521 
	C66.858215,70.967598 65.521408,71.221695 65.087296,69.187286 
z"/>
<path fill="#FCF5D7" opacity="1.000000" stroke="none" 
	d="
M64.673454,65.339928 
	C64.822899,66.056534 64.884521,66.714249 64.904961,67.703308 
	C64.609566,67.994293 64.355354,67.953957 63.725250,67.825333 
	C63.485435,67.364204 63.621517,66.991371 63.836082,66.325867 
	C63.879150,65.797455 63.843727,65.561722 64.146706,65.210495 
	C64.485100,65.094994 64.585632,65.281044 64.673454,65.339928 
z"/>
<path fill="#E1C45F" opacity="1.000000" stroke="none" 
	d="
M79.613541,96.672287 
	C77.371849,99.292938 79.164131,101.405090 80.484146,103.796570 
	C78.667427,106.298935 76.107765,104.800133 73.381210,104.900421 
	C72.609657,102.440224 74.861313,100.500740 73.857910,97.719345 
	C73.841980,97.118752 73.955414,96.883987 74.401802,96.442062 
	C76.286377,95.708549 77.817947,95.711464 79.613541,96.672287 
z"/>
<path fill="#E0E0E0" opacity="1.000000" stroke="none" 
	d="
M138.143280,140.840042 
	C137.403305,140.781845 136.853485,140.144150 136.329697,140.164841 
	C134.116745,140.252335 133.479370,139.158096 133.796387,137.195297 
	C134.198059,134.708374 136.043228,136.152206 137.253128,136.022476 
	C137.823441,135.961334 138.450378,136.428070 139.446625,136.658752 
	C141.367126,138.738678 140.710220,139.978516 138.143280,140.840042 
z"/>
<path fill="#FEFEFE" opacity="1.000000" stroke="none" 
	d="
M130.251648,154.639313 
	C130.899872,155.012054 130.802216,155.414200 130.335098,155.653503 
	C130.172928,155.736588 129.847122,155.500259 129.596054,155.409836 
	C129.741730,155.166534 129.887405,154.923233 130.251648,154.639313 
z"/>
<path fill="#FEFEFE" opacity="1.000000" stroke="none" 
	d="
M133.970734,154.027191 
	C133.535324,153.906311 133.113831,153.772034 132.692352,153.637756 
	C133.015625,152.987869 133.380692,153.314560 133.874451,153.787476 
	C134.005234,153.982208 133.984650,154.013794 133.970734,154.027191 
z"/>
<path fill="#FEFEFE" opacity="1.000000" stroke="none" 
	d="
M127.439896,132.531616 
	C127.401306,132.470596 127.478493,132.592651 127.439896,132.531616 
z"/>
<path fill="#42361A" opacity="1.000000" stroke="none" 
	d="
M65.845840,62.204185 
	C65.953964,62.412476 65.793076,62.759430 65.391449,63.275642 
	C65.292755,63.077545 65.434792,62.710197 65.845840,62.204185 
z"/>
<path fill="#42361A" opacity="1.000000" stroke="none" 
	d="
M64.272636,65.110527 
	C64.435478,65.278831 64.385849,65.462669 64.125389,65.839851 
	C63.839069,65.791649 63.745289,65.552979 63.706398,65.305679 
	C63.700054,65.265350 63.936138,65.186897 64.272636,65.110527 
z"/>
<path fill="#FEFEFE" opacity="1.000000" stroke="none" 
	d="
M82.639191,140.105682 
	C83.887100,140.513351 84.017204,141.390686 84.002151,142.671661 
	C83.587158,143.014313 83.180740,143.014008 82.469963,142.995667 
	C82.213448,142.060135 82.261292,141.142624 82.639191,140.105682 
z"/>
<path fill="#D8B65B" opacity="1.000000" stroke="none" 
	d="
M102.798477,56.609978 
	C102.422806,57.570793 102.070831,58.214367 101.536705,59.073875 
	C101.145256,59.232422 100.935951,59.175045 100.539368,58.853790 
	C99.802872,57.481255 100.011238,56.103878 98.901566,54.903072 
	C98.367340,54.422646 98.035309,54.177570 97.402016,53.810715 
	C96.288437,53.290871 95.397842,53.210388 94.146477,53.068230 
	C90.983009,52.384869 88.240540,52.514439 85.492104,53.404858 
	C83.450439,54.066296 81.344360,54.620224 79.013878,53.138500 
	C79.446213,52.422012 80.125694,52.014603 81.000336,51.376728 
	C87.495483,49.488892 93.793365,49.386944 100.486580,51.332558 
	C101.483566,51.706638 102.082664,51.919933 102.863739,52.307266 
	C103.430984,53.002327 103.571785,53.582664 103.246613,54.629288 
	C102.957504,55.455086 102.889839,55.873917 102.798477,56.609978 
z"/>
<path fill="#FCF5D7" opacity="1.000000" stroke="none" 
	d="
M103.326538,55.005592 
	C102.993729,54.467785 102.962280,53.899307 102.988266,52.906067 
	C103.623123,52.769306 104.200546,53.057316 104.899246,53.645477 
	C104.556320,54.288734 104.092117,54.631832 103.326538,55.005592 
z"/>
<path fill="#050505" opacity="1.000000" stroke="none" 
	d="
M139.001770,112.002289 
	C138.908020,112.038635 138.812515,112.072701 138.856369,112.051643 
	C138.995728,111.996521 139.000000,112.000000 139.001770,112.002289 
z"/>
<path fill="#FAB31A" opacity="1.000000" stroke="none" 
	d="
M97.759949,52.787155 
	C98.358551,53.053749 98.625404,53.217999 98.960846,53.672153 
	C100.609398,55.283253 99.912582,57.235519 100.392776,59.246269 
	C100.487129,60.253788 100.498077,60.931492 100.290222,61.930695 
	C100.193481,62.256973 100.136711,62.630077 100.057846,62.801506 
	C98.831871,63.966778 98.069862,65.224564 97.330795,66.882843 
	C97.172844,67.159363 97.153336,67.166451 97.160019,67.178619 
	C95.584053,66.730110 94.218918,67.504227 92.425598,68.002563 
	C89.446106,66.217865 86.507141,66.403885 83.230629,66.535965 
	C81.272812,65.164078 81.004250,63.810219 82.579353,62.282681 
	C83.541794,61.349312 84.530617,60.389683 83.272598,58.485023 
	C81.162804,60.596676 80.137390,64.094490 76.449623,63.999393 
	C73.806816,63.931240 72.540009,61.702137 70.382950,60.246117 
	C70.134903,60.008049 69.916252,59.891075 69.813049,59.821983 
	C72.526688,57.542328 75.343544,55.331760 78.463562,52.975307 
	C81.308960,53.392605 83.702065,52.714214 86.009132,51.797962 
	C88.777527,50.698498 91.476120,50.778271 94.598160,51.882446 
	C95.659225,52.773396 96.643829,52.407051 97.759949,52.787155 
z"/>
<path fill="#E0E0E0" opacity="1.000000" stroke="none" 
	d="
M80.989868,137.916534 
	C80.200951,140.841644 78.182465,140.408173 76.770241,139.580276 
	C75.721649,138.965591 75.802223,136.834885 76.793701,136.225723 
	C78.248466,135.331924 80.192055,135.103088 80.989868,137.916534 
z"/>
<path fill="#E1C45F" opacity="1.000000" stroke="none" 
	d="
M69.933655,93.451843 
	C70.331734,93.039734 70.775986,93.023254 71.552132,93.037354 
	C73.056274,93.828941 73.712120,94.963417 74.123779,96.566025 
	C74.071716,96.895218 73.899574,97.121376 73.814056,97.237442 
	C71.445343,97.290009 69.428474,96.941734 69.933655,93.451843 
z"/>
<path fill="#F0B121" opacity="1.000000" stroke="none" 
	d="
M74.487076,96.926010 
	C73.147499,95.993843 71.757690,95.398529 71.938965,93.401138 
	C72.936203,92.523659 72.975784,91.484634 73.235153,90.134048 
	C75.234314,89.772186 75.221970,87.999329 76.030052,86.636322 
	C76.497978,86.295212 76.905144,86.251862 77.613602,86.279388 
	C80.534706,89.084602 80.841965,92.549011 80.982475,96.410721 
	C80.804459,96.794128 80.626205,96.832954 80.175919,96.903763 
	C78.236732,96.942772 76.569588,96.949783 74.487076,96.926010 
z"/>
<path fill="#FAB417" opacity="1.000000" stroke="none" 
	d="
M82.634521,65.960709 
	C86.131294,65.361168 89.432297,63.524956 91.976547,67.680283 
	C92.053429,68.044716 92.026146,68.020195 92.029755,68.022568 
	C89.950951,69.409378 87.053177,69.293015 85.260567,71.870346 
	C79.740234,73.823036 71.979294,71.976120 68.918503,68.226189 
	C67.792526,66.846703 67.292030,65.351288 69.532677,64.014862 
	C74.313393,62.694122 78.131958,65.277962 82.634521,65.960709 
z"/>
<path fill="#F7B60F" opacity="1.000000" stroke="none" 
	d="
M82.880264,65.693176 
	C78.438736,68.570000 74.884216,63.883606 70.251160,64.103203 
	C69.928719,62.890202 69.976074,61.840935 70.079163,60.399857 
	C71.396446,60.125526 72.634789,59.838203 73.796310,60.924164 
	C76.954529,63.876919 79.464554,63.265770 80.914047,59.363815 
	C81.342392,58.210728 80.310745,55.883209 83.001534,56.591747 
	C83.979973,56.849388 86.126472,57.091377 85.496208,58.215744 
	C84.612480,59.792274 87.500290,62.556393 83.921928,63.001003 
	C82.283524,63.204575 82.038017,64.051239 82.880264,65.693176 
z"/>
<path fill="#F7B60F" opacity="1.000000" stroke="none" 
	d="
M85.426422,72.123428 
	C84.653374,67.147438 88.273094,68.099663 91.610336,68.015991 
	C90.579826,70.338425 88.922997,72.340767 85.426422,72.123428 
z"/>
<path fill="#D8B65B" opacity="1.000000" stroke="none" 
	d="
M97.492950,67.068344 
	C96.761833,65.229149 97.256500,63.760502 99.620132,63.017204 
	C100.062057,64.743172 99.080704,65.937675 97.492950,67.068344 
z"/>
<path fill="#D8B65B" opacity="1.000000" stroke="none" 
	d="
M100.439774,62.035286 
	C100.135345,61.444275 100.077217,60.631577 100.015717,59.412384 
	C100.152992,58.884598 100.293648,58.763302 100.675613,58.781269 
	C100.916908,58.920536 101.130196,59.108692 101.242378,59.199249 
	C101.131729,60.131069 100.908905,60.972332 100.439774,62.035286 
z"/>
<path fill="#F0B121" opacity="1.000000" stroke="none" 
	d="
M100.932121,58.534275 
	C100.916908,58.920536 100.466484,58.984180 100.239410,58.995033 
	C98.477814,57.769718 100.038239,55.879791 99.073715,54.201073 
	C101.680153,54.437347 100.817924,56.509281 100.932121,58.534275 
z"/>
<path fill="#F0B121" opacity="1.000000" stroke="none" 
	d="
M97.826195,52.712486 
	C97.158813,52.813896 96.278130,52.653488 95.194611,52.217232 
	C95.865479,52.111145 96.739189,52.280907 97.826195,52.712486 
z"/>
</svg>