<svg version="1.1" id="Layer_1" xmlns="http://www.w3.org/2000/svg" xmlns:xlink="http://www.w3.org/1999/xlink" x="0px" y="0px"
	 width="100%" viewBox="0 0 338 280" enable-background="new 0 0 338 280" xml:space="preserve">
<path fill="#F5F6F5" opacity="1.000000" stroke="none" 
	d="
M339.000000,93.000000 
	C339.000000,156.000000 339.000000,218.500000 339.000000,281.000000 
	C226.333328,281.000000 113.666664,281.000000 1.000000,281.000000 
	C1.000000,187.666672 1.000000,94.333336 1.000000,1.000000 
	C113.666664,1.000000 226.333328,1.000000 339.000000,1.000000 
	C339.000000,31.500000 339.000000,62.000000 339.000000,93.000000 
M318.478882,202.807831 
	C318.723236,202.604645 318.910034,202.357880 319.739075,201.937698 
	C321.207916,199.001663 322.676758,196.065643 324.892853,192.829910 
	C325.260834,191.632156 325.949463,190.434753 325.950714,189.236618 
	C326.004364,137.141144 326.011261,85.045593 325.919098,32.950226 
	C325.916687,31.594326 324.751312,30.240480 324.041473,28.107565 
	C323.771912,21.319464 318.630829,18.037058 314.072662,14.359062 
	C313.964935,14.272144 313.333618,14.834083 312.344513,15.086991 
	C311.893463,14.735443 311.442383,14.383895 310.870453,13.322878 
	C307.956573,10.958298 305.063812,8.504698 300.331024,11.173592 
	C299.879791,11.089671 299.428589,11.005752 298.357269,10.377337 
	C297.044983,10.252334 295.732727,10.018305 294.420410,10.017959 
	C227.200043,10.000200 159.979691,9.996109 92.759354,10.040455 
	C91.181328,10.041495 89.603668,10.610459 87.297211,11.160536 
	C86.536957,11.112347 85.776695,11.064158 84.507240,10.471132 
	C83.706131,10.324527 82.822983,9.880619 82.116165,10.075684 
	C70.582054,13.258801 60.378811,21.701635 60.041477,36.256378 
	C59.829914,45.384670 59.743462,54.532166 60.106815,63.650879 
	C60.300266,68.505653 59.221836,70.581535 53.881504,70.120369 
	C47.947674,69.607941 41.886730,69.547104 35.976044,70.178383 
	C32.554081,70.543861 29.319113,72.660240 25.794680,74.174332 
	C25.794680,74.174332 25.534752,74.079117 24.917633,74.211166 
	C24.617285,74.489250 24.316935,74.767326 24.004406,74.995865 
	C24.004406,74.995865 24.048313,75.021889 23.653572,75.179085 
	C23.399096,75.319893 23.204239,75.519028 22.802792,76.045662 
	C22.802792,76.045662 22.426807,76.089867 21.835787,76.230484 
	C21.566696,76.519005 21.297606,76.807533 21.020218,77.018845 
	C21.020218,77.018845 21.096201,77.034897 20.624168,77.249275 
	C20.422125,77.523048 20.220081,77.796822 19.834093,78.615730 
	C19.246601,79.083237 18.659109,79.550743 17.608379,80.251381 
	C17.417965,80.534157 17.227549,80.816940 17.021744,81.022530 
	C17.021744,81.022530 17.100113,81.029846 16.577780,81.347588 
	C16.415430,81.715675 16.253080,82.083763 16.059246,82.810410 
	C16.059246,82.810410 15.800903,83.061043 15.448131,83.308472 
	C15.237915,83.517204 15.096062,83.765083 14.998451,84.002106 
	C14.998451,84.002106 15.052141,84.016220 14.555331,84.341331 
	C14.369657,84.891396 14.183983,85.441467 14.000655,86.000000 
	C14.000655,86.000000 13.993474,85.999573 13.273973,86.151016 
	C12.183714,89.507729 10.210557,92.848824 10.150875,96.223755 
	C9.835866,114.037209 9.968210,131.859390 10.069490,149.677841 
	C10.077559,151.097290 11.027601,152.511398 11.734868,154.704056 
	C11.668359,155.493500 11.601850,156.282959 10.860716,157.334564 
	C10.574870,158.572708 10.041741,159.810394 10.039549,161.049042 
	C9.991812,188.019058 9.985587,214.989197 10.055775,241.959106 
	C10.059233,243.288055 10.828627,244.615021 11.582215,246.585373 
	C11.580943,247.064468 11.579671,247.543564 10.991899,248.192657 
	C11.321622,249.128265 11.651346,250.063889 12.252200,251.439468 
	C12.203885,251.764053 12.155571,252.088623 12.072172,253.216690 
	C12.767765,254.461563 13.463359,255.706436 14.073567,256.950256 
	C14.073567,256.950256 14.098002,256.868439 14.054588,257.607361 
	C14.737821,258.393616 15.421053,259.179871 16.571157,260.181641 
	C16.704700,260.489014 16.838245,260.796356 17.065323,261.691528 
	C17.448202,262.100098 17.831081,262.508698 18.087614,262.942841 
	C18.087614,262.942841 18.088459,262.813934 18.277246,263.332977 
	C18.580734,263.525391 18.884222,263.717834 19.060141,263.910950 
	C19.060141,263.910950 19.086695,263.786194 19.296000,264.324982 
	C19.798750,264.566681 20.301500,264.808350 21.335899,265.176422 
	C21.558161,265.451691 21.780424,265.726959 22.257820,266.436432 
	C22.540304,266.610199 22.822788,266.783966 23.024918,266.962585 
	C23.024918,266.962585 23.031731,266.882385 23.341776,267.408966 
	C23.904688,267.599548 24.467600,267.790100 25.000256,268.001282 
	C25.000256,268.001282 25.016882,267.968872 25.161665,268.712616 
	C26.540031,269.110992 27.918398,269.509369 29.682386,269.862885 
	C29.682386,269.862885 30.006025,270.077301 30.215649,270.847717 
	C31.563820,271.230530 32.911743,271.947296 34.260197,271.948303 
	C106.795609,272.002411 179.331085,272.010376 251.866425,271.910675 
	C253.584854,271.908325 255.301514,270.629700 257.238739,269.760193 
	C257.238739,269.760193 257.497406,269.886841 258.293274,269.929718 
	C259.512024,269.232880 260.730743,268.536041 261.947388,267.925079 
	C261.947388,267.925079 261.865570,267.898956 262.619232,267.948090 
	C263.730743,266.939575 264.842255,265.931061 265.994568,264.982788 
	C265.994568,264.982788 265.922760,264.971191 266.382538,264.759949 
	C266.582947,264.494720 266.783356,264.229523 267.001221,264.001221 
	C267.001221,264.001221 266.964294,263.983521 267.408264,263.759247 
	C267.685028,263.555420 267.876678,263.290131 268.001221,263.001221 
	C268.001221,263.001221 267.963226,262.983368 268.410278,262.753296 
	C268.599091,262.481720 268.787903,262.210144 268.991730,262.000458 
	C268.991730,262.000458 268.939423,261.964050 269.682251,261.894379 
	C270.424133,260.502655 271.165985,259.110931 271.948547,257.277771 
	C271.948547,257.277771 272.225189,256.931366 272.585175,256.636230 
	C272.791077,256.388123 272.910004,256.103607 272.936035,255.332535 
	C272.936035,255.332535 273.169373,254.947540 273.580872,254.574310 
	C273.689911,254.221146 273.798950,253.867981 273.796753,253.234451 
	C273.796753,253.234451 273.988495,253.001587 274.775848,252.805374 
	C275.182678,251.310333 275.927704,249.818527 275.942047,248.319717 
	C276.043488,237.702454 276.115723,227.081619 275.926208,216.466751 
	C275.863617,212.961945 277.024017,211.833267 280.492828,211.932388 
	C287.952698,212.145523 295.449554,212.381714 302.879578,211.864990 
	C307.992981,211.509399 313.298920,210.434021 316.478821,204.795334 
	C316.735535,204.596832 316.938995,204.353729 317.489624,203.804871 
	C317.740265,203.599701 317.940063,203.353317 318.478882,202.807831 
z"/>
<path fill="#3CACB9" opacity="1.000000" stroke="none" 
	d="
M22.002689,266.002228 
	C21.780424,265.726959 21.558161,265.451691 20.951561,264.853546 
	C20.073715,264.282501 19.580206,264.034363 19.086695,263.786194 
	C19.086695,263.786194 19.060141,263.910950 19.060673,263.628601 
	C18.736956,263.168823 18.412706,262.991364 18.088459,262.813934 
	C18.088459,262.813934 18.087614,262.942841 18.124086,262.635864 
	C17.764303,261.920502 17.368046,261.512115 16.971790,261.103729 
	C16.838245,260.796356 16.704700,260.489014 16.273281,259.762512 
	C15.349605,258.518402 14.723804,257.693420 14.098002,256.868439 
	C14.098002,256.868439 14.073567,256.950256 14.093418,256.589874 
	C13.444598,254.957397 12.775928,253.685303 12.107258,252.413208 
	C12.155571,252.088623 12.203885,251.764053 12.145929,250.840118 
	C11.885904,249.501404 11.732150,248.762024 11.578398,248.022659 
	C11.579671,247.543564 11.580943,247.064468 11.570984,245.824951 
	C11.596036,229.125412 11.605190,213.186172 11.677309,197.247208 
	C11.733538,184.820297 11.868062,172.393753 12.437894,159.992096 
	C100.151665,160.010864 187.395340,160.004547 274.765381,160.454086 
	C275.029572,177.529144 275.167389,194.148376 275.201874,211.240784 
	C274.728485,225.476517 274.358490,239.239044 273.988495,253.001587 
	C273.988495,253.001587 273.796753,253.234451 273.624634,253.552536 
	C273.358124,254.229599 273.263763,254.588577 273.169373,254.947540 
	C273.169373,254.947540 272.936035,255.332535 272.734283,255.688873 
	C272.281372,256.289062 272.178925,256.584442 272.225189,256.931366 
	C272.225189,256.931366 271.948547,257.277771 271.658325,257.693604 
	C270.558563,259.394318 269.748993,260.679199 268.939423,261.964050 
	C268.939423,261.964050 268.991730,262.000458 268.742004,262.061676 
	C268.315918,262.409729 268.139587,262.696564 267.963226,262.983368 
	C267.963226,262.983368 268.001221,263.001221 267.748352,263.065979 
	C267.318390,263.414978 267.141327,263.699249 266.964294,263.983521 
	C266.964294,263.983521 267.001221,264.001221 266.746063,264.065491 
	C266.301514,264.410217 266.112122,264.690704 265.922760,264.971191 
	C265.922760,264.971191 265.994568,264.982788 265.659424,265.023956 
	C264.171387,266.009735 263.018494,266.954346 261.865570,267.898987 
	C261.865570,267.898956 261.947388,267.925079 261.596069,267.910461 
	C259.995667,268.559540 258.746521,269.223206 257.497406,269.886841 
	C257.497406,269.886841 257.238739,269.760193 256.700348,269.856140 
	C252.363571,270.295654 248.565460,270.935150 244.766754,270.938721 
	C179.313339,271.000519 113.859810,271.007965 48.406391,270.944946 
	C42.272663,270.939056 36.139469,270.379700 30.006025,270.077301 
	C30.006025,270.077301 29.682386,269.862885 29.249062,269.638000 
	C27.549452,268.931732 26.283167,268.450287 25.016882,267.968872 
	C25.016882,267.968872 25.000256,268.001282 24.848839,267.740967 
	C24.142191,267.281250 23.586962,267.081818 23.031731,266.882385 
	C23.031731,266.882385 23.024918,266.962585 22.973412,266.712524 
	C22.615501,266.309052 22.309097,266.155640 22.002689,266.002228 
M49.329529,246.576492 
	C49.464302,248.392654 49.596191,250.209015 49.734447,252.024918 
	C50.031769,255.929962 52.086311,258.227020 56.039597,258.312805 
	C62.013596,258.442474 67.994705,258.445801 73.968513,258.311768 
	C77.920067,258.223145 80.134979,255.936111 80.211472,252.011414 
	C80.327904,246.038330 80.320824,240.057129 80.143211,234.086014 
	C80.026466,230.160995 78.006134,228.004364 73.783302,228.199783 
	C70.970390,228.329956 68.142128,228.128616 65.480476,227.202209 
	C65.386383,216.086502 65.386383,216.086441 54.046135,216.088425 
	C52.885254,216.088623 51.724354,216.085922 50.563499,216.091904 
	C35.757210,216.168152 35.390728,214.074356 35.332855,231.207474 
	C35.275032,248.325333 36.562492,245.522919 49.329529,246.576492 
M263.899841,212.699615 
	C261.486725,211.799393 259.087219,210.165527 256.658234,210.120468 
	C243.009064,209.867188 229.352341,209.931885 215.699127,210.025330 
	C209.737030,210.066147 206.274796,213.386230 206.172852,219.256241 
	C206.013870,228.411545 206.019394,237.573502 206.172195,246.729019 
	C206.266785,252.396942 209.655838,255.901184 215.197113,255.951706 
	C229.349258,256.080658 243.503540,256.020721 257.656677,255.965042 
	C261.558258,255.949692 265.366333,253.960098 265.512085,250.329941 
	C265.983643,238.584244 265.549469,226.801453 265.399200,215.033783 
	C265.391815,214.456238 264.768585,213.886566 263.899841,212.699615 
M69.539261,195.703232 
	C70.542450,185.768005 68.068817,181.427765 60.626789,181.215408 
	C50.655270,180.930908 40.667850,181.035049 30.690847,181.195435 
	C26.806337,181.257874 23.505901,182.842072 22.292896,186.976837 
	C20.664028,192.529083 22.248293,199.031342 25.796198,201.098221 
	C26.874840,201.726608 28.299900,202.012863 29.569277,202.021561 
	C40.213745,202.094528 50.858910,202.069824 61.503864,202.066757 
	C65.425179,202.065613 68.241638,200.508392 69.539261,195.703232 
M207.271957,189.069763 
	C206.928040,199.849426 209.037949,202.068649 219.641312,202.070786 
	C228.289230,202.072525 236.937210,202.085861 245.585068,202.064453 
	C252.339676,202.047745 254.901688,199.676468 255.014389,193.416626 
	C255.176651,184.401505 252.974487,181.292862 245.829468,181.176010 
	C236.186310,181.018295 226.538055,181.077271 216.893082,181.164368 
	C212.088425,181.207748 208.540848,183.172333 207.271957,189.069763 
M160.585861,181.132797 
	C147.332047,181.130829 145.608932,182.626389 145.918411,193.863251 
	C146.079208,199.701492 148.314102,202.011429 154.153275,202.051407 
	C163.983521,202.118713 173.814575,202.086411 183.645233,202.064804 
	C190.876465,202.048904 192.991669,199.999725 193.071136,193.037689 
	C193.173355,184.078964 191.018784,181.286942 183.557281,181.161499 
	C176.227982,181.038269 168.894989,181.133743 160.585861,181.132797 
M92.092316,181.154099 
	C84.675964,182.904114 83.509193,184.812637 83.978340,194.426407 
	C84.202614,199.022278 86.924248,201.985779 91.430756,202.029541 
	C102.262840,202.134766 113.099396,202.185959 123.927200,201.945679 
	C125.845627,201.903091 129.146194,200.626831 129.380127,199.441132 
	C130.282455,194.867523 131.142654,189.899628 130.201553,185.464203 
	C129.372879,181.558609 124.800911,181.124161 120.979546,181.129684 
	C111.646408,181.143173 102.313225,181.135986 92.092316,181.154099 
z"/>
<path fill="#3AADB9" opacity="1.000000" stroke="none" 
	d="
M18.071617,80.018242 
	C18.659109,79.550743 19.246601,79.083237 20.177498,78.255806 
	C20.712667,77.608887 20.904434,77.321892 21.096201,77.034897 
	C21.096201,77.034897 21.020218,77.018845 21.315708,76.984222 
	C21.883068,76.663017 22.154938,76.376442 22.426807,76.089867 
	C22.426807,76.089867 22.802792,76.045662 23.156933,75.879601 
	C23.795834,75.565140 23.974913,75.334595 24.048313,75.021889 
	C24.048313,75.021889 24.004406,74.995865 24.318581,74.959564 
	C24.933420,74.641884 25.234085,74.360497 25.534750,74.079117 
	C25.534752,74.079117 25.794680,74.174332 26.290459,74.040665 
	C30.999823,73.164948 35.188347,72.046875 39.432541,71.764023 
	C46.844753,71.270035 54.291210,71.289841 62.208229,71.133400 
	C71.502945,71.125458 80.312752,71.078445 89.462349,71.238937 
	C109.755554,71.424789 129.708969,71.403122 150.008667,71.665588 
	C152.319717,72.140038 154.284256,72.493774 156.249237,72.496185 
	C186.539948,72.533371 216.830795,72.490509 247.121475,72.540337 
	C264.253113,72.568520 274.525085,83.223038 274.490387,100.476135 
	C274.476440,107.420662 274.931854,114.366135 275.112183,121.745461 
	C274.982178,126.812965 274.913666,131.446182 274.389221,136.048752 
	C186.967758,136.027176 100.002205,136.036255 12.765688,136.021729 
	C12.314193,136.015121 12.133664,136.032120 11.798313,135.735886 
	C11.652637,126.303307 11.368364,117.171249 11.763121,108.068642 
	C12.082945,100.693909 13.219292,93.354599 13.993473,85.999573 
	C13.993474,85.999573 14.000655,86.000000 14.239795,85.825729 
	C14.670003,85.106377 14.861072,84.561295 15.052141,84.016220 
	C15.052141,84.016220 14.998451,84.002106 15.220715,83.934937 
	C15.708507,83.663704 15.827815,83.394791 15.800903,83.061043 
	C15.800903,83.061043 16.059246,82.810410 16.330849,82.462296 
	C16.768339,81.752739 16.934225,81.391296 17.100113,81.029846 
	C17.100113,81.029846 17.021744,81.022530 17.280090,80.969055 
	C17.716162,80.616470 17.893888,80.317360 18.071617,80.018242 
z"/>
<path fill="#EFC505" opacity="1.000000" stroke="none" 
	d="
M89.122559,71.031433 
	C80.312752,71.078445 71.502945,71.125458 62.198441,70.660156 
	C61.673733,59.042622 61.537762,47.936325 61.650028,36.832542 
	C61.728130,29.107740 64.754921,22.353359 70.917137,17.846619 
	C75.064041,14.813787 80.279198,13.241609 85.016441,11.015970 
	C85.776695,11.064158 86.536957,11.112347 88.116150,11.153271 
	C158.127319,11.165805 227.319565,11.186590 296.511810,11.193622 
	C297.333649,11.193705 298.155518,11.016356 298.977356,10.921831 
	C299.428589,11.005752 299.879791,11.089671 300.947327,11.306446 
	C304.706177,12.303650 307.848755,13.167999 310.991333,14.032347 
	C311.442383,14.383895 311.893463,14.735443 312.790405,15.387856 
	C316.518677,20.105190 319.801025,24.521660 323.037567,29.276989 
	C323.334686,30.380262 323.677612,31.144676 324.129089,32.123554 
	C324.237640,32.338017 324.199127,32.817219 324.121216,33.293755 
	C324.017303,47.543835 323.991272,61.317379 323.498840,75.096321 
	C306.239166,75.100487 289.442810,75.275162 272.654785,74.977089 
	C268.337524,74.900444 264.051117,73.312592 259.742493,72.459579 
	C255.569672,71.633446 251.390442,70.193260 247.207260,70.168541 
	C214.786331,69.977005 182.363754,70.063210 149.820831,69.622154 
	C149.737030,67.050980 149.774094,64.921097 150.148285,62.572250 
	C150.258896,58.306030 150.032394,54.258766 149.729507,49.754593 
	C149.680954,47.448120 149.708771,45.598549 149.921692,43.758011 
	C149.968826,43.625240 149.830841,43.483440 149.519684,43.030140 
	C148.018143,37.295013 144.261002,35.279827 139.008133,35.287071 
	C126.021744,35.304977 113.035103,35.250996 100.049004,35.314590 
	C92.841087,35.349884 89.350372,38.859055 89.264030,46.060959 
	C89.164268,54.383816 89.165291,62.707890 89.122559,71.031433 
z"/>
<path fill="#94D4DC" opacity="1.000000" stroke="none" 
	d="
M274.639008,159.998245 
	C187.395340,160.004547 100.151665,160.010864 12.392082,159.626740 
	C11.762558,158.515015 11.648949,157.793701 11.535340,157.072403 
	C11.601850,156.282959 11.668359,155.493500 11.740225,154.073029 
	C11.756909,152.625061 11.768236,151.808121 12.266275,151.004105 
	C34.577312,151.029526 56.401634,151.044632 78.225960,151.054016 
	C143.698425,151.082169 209.170883,151.108093 274.775238,151.559753 
	C274.817749,154.655823 274.728394,157.327042 274.639008,159.998245 
z"/>
<path fill="#FBFCF7" opacity="1.000000" stroke="none" 
	d="
M30.110836,270.462524 
	C36.139469,270.379700 42.272663,270.939056 48.406391,270.944946 
	C113.859810,271.007965 179.313339,271.000519 244.766754,270.938721 
	C248.565460,270.935150 252.363571,270.295654 256.590454,269.949219 
	C255.301514,270.629700 253.584854,271.908325 251.866425,271.910675 
	C179.331085,272.010376 106.795609,272.002411 34.260197,271.948303 
	C32.911743,271.947296 31.563820,271.230530 30.110836,270.462524 
z"/>
<path fill="#FBFCF7" opacity="1.000000" stroke="none" 
	d="
M84.761841,10.743551 
	C80.279198,13.241609 75.064041,14.813787 70.917137,17.846619 
	C64.754921,22.353359 61.728130,29.107740 61.650028,36.832542 
	C61.537762,47.936325 61.673733,59.042622 61.713531,70.621086 
	C54.291210,71.289841 46.844753,71.270035 39.432541,71.764023 
	C35.188347,72.046875 30.999823,73.164948 26.393112,73.947815 
	C29.319113,72.660240 32.554081,70.543861 35.976044,70.178383 
	C41.886730,69.547104 47.947674,69.607941 53.881504,70.120369 
	C59.221836,70.581535 60.300266,68.505653 60.106815,63.650879 
	C59.743462,54.532166 59.829914,45.384670 60.041477,36.256378 
	C60.378811,21.701635 70.582054,13.258801 82.116165,10.075684 
	C82.822983,9.880619 83.706131,10.324527 84.761841,10.743551 
z"/>
<path fill="#FBFCF7" opacity="1.000000" stroke="none" 
	d="
M298.667297,10.649584 
	C298.155518,11.016356 297.333649,11.193705 296.511810,11.193622 
	C227.319565,11.186590 158.127319,11.165805 88.480461,11.030265 
	C89.603668,10.610459 91.181328,10.041495 92.759354,10.040455 
	C159.979691,9.996109 227.200043,10.000200 294.420410,10.017959 
	C295.732727,10.018305 297.044983,10.252334 298.667297,10.649584 
z"/>
<path fill="#FBFCF7" opacity="1.000000" stroke="none" 
	d="
M11.198029,157.203491 
	C11.648949,157.793701 11.762558,158.515015 11.921980,159.601685 
	C11.868062,172.393753 11.733538,184.820297 11.677309,197.247208 
	C11.605190,213.186172 11.596036,229.125412 11.400558,245.503723 
	C10.828627,244.615021 10.059233,243.288055 10.055775,241.959106 
	C9.985587,214.989197 9.991812,188.019058 10.039549,161.049042 
	C10.041741,159.810394 10.574870,158.572708 11.198029,157.203491 
z"/>
<path fill="#FBFCF7" opacity="1.000000" stroke="none" 
	d="
M324.199127,32.817219 
	C324.199127,32.817219 324.237640,32.338017 324.183990,31.764194 
	C324.085785,30.461285 324.041229,29.732199 324.029083,28.973186 
	C324.061493,28.943260 324.128326,28.885674 324.128326,28.885674 
	C324.751312,30.240480 325.916687,31.594326 325.919098,32.950226 
	C326.011261,85.045593 326.004364,137.141144 325.950714,189.236618 
	C325.949463,190.434753 325.260834,191.632156 324.487000,192.952789 
	C324.081177,193.075653 324.020050,193.018005 324.014282,192.649384 
	C324.022034,191.552277 324.035553,190.823776 324.156311,189.889008 
	C324.263489,189.682739 324.220581,189.219818 324.471466,188.873779 
	C324.837921,187.205338 325.054108,185.882965 325.054596,184.560516 
	C325.072235,135.579041 325.078125,86.597565 325.033630,37.616138 
	C325.032196,36.016247 324.489502,34.416847 324.199127,32.817219 
z"/>
<path fill="#FBFCF7" opacity="1.000000" stroke="none" 
	d="
M11.779563,150.991165 
	C11.768236,151.808121 11.756909,152.625061 11.642735,153.684998 
	C11.027601,152.511398 10.077559,151.097290 10.069490,149.677841 
	C9.968210,131.859390 9.835866,114.037209 10.150875,96.223755 
	C10.210557,92.848824 12.183714,89.507729 13.633723,86.075294 
	C13.219292,93.354599 12.082945,100.693909 11.763121,108.068642 
	C11.368364,117.171249 11.652637,126.303307 11.754839,136.147919 
	C11.829554,139.585480 11.792921,142.297775 11.720135,145.436188 
	C11.715841,147.571930 11.747702,149.281540 11.779563,150.991165 
z"/>
<path fill="#FBFCF7" opacity="1.000000" stroke="none" 
	d="
M274.382172,252.903473 
	C274.358490,239.239044 274.728485,225.476517 275.645752,211.273651 
	C278.170868,210.860672 280.148987,210.921158 282.126678,210.909866 
	C293.737061,210.843582 305.654419,212.495605 315.970032,204.959534 
	C316.000366,204.987854 316.066803,205.037659 316.066803,205.037659 
	C313.298920,210.434021 307.992981,211.509399 302.879578,211.864990 
	C295.449554,212.381714 287.952698,212.145523 280.492828,211.932388 
	C277.024017,211.833267 275.863617,212.961945 275.926208,216.466751 
	C276.115723,227.081619 276.043488,237.702454 275.942047,248.319717 
	C275.927704,249.818527 275.182678,251.310333 274.382172,252.903473 
z"/>
<path fill="#FBFCF7" opacity="1.000000" stroke="none" 
	d="
M323.083374,28.938137 
	C319.801025,24.521660 316.518677,20.105190 313.091400,15.391050 
	C313.333618,14.834083 313.964935,14.272144 314.072662,14.359062 
	C318.630829,18.037058 323.771912,21.319464 324.084900,28.496620 
	C324.128326,28.885674 324.061493,28.943260 323.800720,28.957460 
	C323.539978,28.971661 323.083374,28.938141 323.083374,28.938137 
z"/>
<path fill="#FBFCF7" opacity="1.000000" stroke="none" 
	d="
M310.930908,13.677612 
	C307.848755,13.167999 304.706177,12.303650 301.282318,11.209749 
	C305.063812,8.504698 307.956573,10.958298 310.930908,13.677612 
z"/>
<path fill="#FBFCF7" opacity="1.000000" stroke="none" 
	d="
M324.113403,193.102631 
	C322.676758,196.065643 321.207916,199.001663 319.364075,201.969406 
	C318.989105,202.001114 318.932281,201.940247 318.975616,201.616669 
	C319.743774,199.967209 320.468597,198.641327 321.425995,197.180756 
	C321.763458,196.717102 321.868347,196.388153 322.014709,196.043823 
	C322.056152,196.028442 322.041534,195.941238 322.290253,195.806839 
	C322.649719,195.142044 322.760468,194.611649 322.985260,193.853973 
	C323.105316,193.457275 323.111359,193.287872 323.343536,193.097610 
	C323.569672,193.076752 324.020050,193.018005 324.020050,193.018005 
	C324.020050,193.018005 324.081177,193.075653 324.113403,193.102631 
z"/>
<path fill="#FBFCF7" opacity="1.000000" stroke="none" 
	d="
M269.310852,261.929199 
	C269.748993,260.679199 270.558563,259.394318 271.638000,257.914337 
	C271.165985,259.110931 270.424133,260.502655 269.310852,261.929199 
z"/>
<path fill="#FBFCF7" opacity="1.000000" stroke="none" 
	d="
M262.242401,267.923523 
	C263.018494,266.954346 264.171387,266.009735 265.639038,264.993835 
	C264.842255,265.931061 263.730743,266.939575 262.242401,267.923523 
z"/>
<path fill="#FBFCF7" opacity="1.000000" stroke="none" 
	d="
M12.089716,252.814941 
	C12.775928,253.685303 13.444598,254.957397 14.136110,256.590393 
	C13.463359,255.706436 12.767765,254.461563 12.089716,252.814941 
z"/>
<path fill="#FBFCF7" opacity="1.000000" stroke="none" 
	d="
M257.895325,269.908264 
	C258.746521,269.223206 259.995667,268.559540 261.597137,267.867554 
	C260.730743,268.536041 259.512024,269.232880 257.895325,269.908264 
z"/>
<path fill="#FBFCF7" opacity="1.000000" stroke="none" 
	d="
M11.285147,248.107666 
	C11.732150,248.762024 11.885904,249.501404 12.010365,250.620132 
	C11.651346,250.063889 11.321622,249.128265 11.285147,248.107666 
z"/>
<path fill="#FBFCF7" opacity="1.000000" stroke="none" 
	d="
M25.089273,268.340759 
	C26.283167,268.450287 27.549452,268.931732 29.056252,269.660431 
	C27.918398,269.509369 26.540031,269.110992 25.089273,268.340759 
z"/>
<path fill="#FBFCF7" opacity="1.000000" stroke="none" 
	d="
M14.076296,257.237915 
	C14.723804,257.693420 15.349605,258.518402 16.039845,259.654755 
	C15.421053,259.179871 14.737821,258.393616 14.076296,257.237915 
z"/>
<path fill="#FBFCF7" opacity="1.000000" stroke="none" 
	d="
M23.186752,267.145691 
	C23.586962,267.081818 24.142191,267.281250 24.863966,267.730652 
	C24.467600,267.790100 23.904688,267.599548 23.186752,267.145691 
z"/>
<path fill="#FBFCF7" opacity="1.000000" stroke="none" 
	d="
M19.191347,264.055603 
	C19.580206,264.034363 20.073715,264.282501 20.685738,264.790344 
	C20.301500,264.808350 19.798750,264.566681 19.191347,264.055603 
z"/>
<path fill="#FBFCF7" opacity="1.000000" stroke="none" 
	d="
M17.018555,261.397644 
	C17.368046,261.512115 17.764303,261.920502 18.187260,262.623077 
	C17.831081,262.508698 17.448202,262.100098 17.018555,261.397644 
z"/>
<path fill="#FBFCF7" opacity="1.000000" stroke="none" 
	d="
M14.803736,84.178772 
	C14.861072,84.561295 14.670003,85.106377 14.238622,85.821487 
	C14.183983,85.441467 14.369657,84.891396 14.803736,84.178772 
z"/>
<path fill="#FBFCF7" opacity="1.000000" stroke="none" 
	d="
M22.130257,266.219330 
	C22.309097,266.155640 22.615501,266.309052 23.013588,266.710083 
	C22.822788,266.783966 22.540304,266.610199 22.130257,266.219330 
z"/>
<path fill="#FBFCF7" opacity="1.000000" stroke="none" 
	d="
M266.152649,264.865570 
	C266.112122,264.690704 266.301514,264.410217 266.737335,264.047028 
	C266.783356,264.229523 266.582947,264.494720 266.152649,264.865570 
z"/>
<path fill="#FBFCF7" opacity="1.000000" stroke="none" 
	d="
M267.186279,263.871399 
	C267.141327,263.699249 267.318390,263.414978 267.739380,263.047058 
	C267.876678,263.290131 267.685028,263.555420 267.186279,263.871399 
z"/>
<path fill="#FBFCF7" opacity="1.000000" stroke="none" 
	d="
M18.182852,263.073456 
	C18.412706,262.991364 18.736956,263.168823 19.124458,263.628235 
	C18.884222,263.717834 18.580734,263.525391 18.182852,263.073456 
z"/>
<path fill="#FBFCF7" opacity="1.000000" stroke="none" 
	d="
M268.186768,262.868347 
	C268.139587,262.696564 268.315918,262.409729 268.734497,262.030701 
	C268.787903,262.210144 268.599091,262.481720 268.186768,262.868347 
z"/>
<path fill="#FBFCF7" opacity="1.000000" stroke="none" 
	d="
M25.226191,74.145142 
	C25.234085,74.360497 24.933420,74.641884 24.324669,74.984337 
	C24.316935,74.767326 24.617285,74.489250 25.226191,74.145142 
z"/>
<path fill="#FBFCF7" opacity="1.000000" stroke="none" 
	d="
M272.405182,256.783813 
	C272.178925,256.584442 272.281372,256.289062 272.737244,255.913971 
	C272.910004,256.103607 272.791077,256.388123 272.405182,256.783813 
z"/>
<path fill="#FBFCF7" opacity="1.000000" stroke="none" 
	d="
M273.375122,254.760925 
	C273.263763,254.588577 273.358124,254.229599 273.680237,253.692719 
	C273.798950,253.867981 273.689911,254.221146 273.375122,254.760925 
z"/>
<path fill="#FBFCF7" opacity="1.000000" stroke="none" 
	d="
M23.850943,75.100487 
	C23.974913,75.334595 23.795834,75.565140 23.290037,75.745010 
	C23.204239,75.519028 23.399096,75.319893 23.850943,75.100487 
z"/>
<path fill="#FBFCF7" opacity="1.000000" stroke="none" 
	d="
M22.131298,76.160172 
	C22.154938,76.376442 21.883068,76.663017 21.319855,77.022827 
	C21.297606,76.807533 21.566696,76.519005 22.131298,76.160172 
z"/>
<path fill="#FBFCF7" opacity="1.000000" stroke="none" 
	d="
M20.860184,77.142090 
	C20.904434,77.321892 20.712667,77.608887 20.269470,77.983238 
	C20.220081,77.796822 20.422125,77.523048 20.860184,77.142090 
z"/>
<path fill="#FBFCF7" opacity="1.000000" stroke="none" 
	d="
M17.839998,80.134811 
	C17.893888,80.317360 17.716162,80.616470 17.287785,81.007652 
	C17.227549,80.816940 17.417965,80.534157 17.839998,80.134811 
z"/>
<path fill="#FBFCF7" opacity="1.000000" stroke="none" 
	d="
M16.838947,81.188721 
	C16.934225,81.391296 16.768339,81.752739 16.346592,82.283020 
	C16.253080,82.083763 16.415430,81.715675 16.838947,81.188721 
z"/>
<path fill="#FBFCF7" opacity="1.000000" stroke="none" 
	d="
M317.089142,204.066025 
	C316.938995,204.353729 316.735535,204.596832 316.272827,204.916504 
	C316.066803,205.037659 316.000366,204.987854 316.047150,204.713104 
	C316.387421,204.283585 316.680908,204.128830 317.002197,203.998169 
	C317.029999,204.022263 317.089142,204.066025 317.089142,204.066025 
z"/>
<path fill="#FBFCF7" opacity="1.000000" stroke="none" 
	d="
M318.089050,203.065720 
	C317.940063,203.353317 317.740265,203.599701 317.289368,203.935455 
	C317.089142,204.066025 317.029999,204.022263 317.061829,203.743073 
	C317.387299,203.300766 317.680939,203.137619 318.002319,202.998383 
	C318.030060,203.022308 318.089050,203.065720 318.089050,203.065720 
z"/>
<path fill="#FBFCF7" opacity="1.000000" stroke="none" 
	d="
M319.014160,202.034332 
	C318.910034,202.357880 318.723236,202.604645 318.283966,202.936768 
	C318.089050,203.065720 318.030060,203.022308 318.057220,202.746216 
	C318.367004,202.293488 318.649658,202.116867 318.932281,201.940247 
	C318.932281,201.940247 318.989105,202.001114 319.014160,202.034332 
z"/>
<path fill="#FBFCF7" opacity="1.000000" stroke="none" 
	d="
M15.624517,83.184753 
	C15.827815,83.394791 15.708507,83.663704 15.232775,83.959946 
	C15.096062,83.765083 15.237915,83.517204 15.624517,83.184753 
z"/>
<path fill="#EDC505" opacity="1.000000" stroke="none" 
	d="
M318.975616,201.616669 
	C318.649658,202.116867 318.367004,202.293488 318.029480,202.722290 
	C317.680939,203.137619 317.387299,203.300766 317.034027,203.718994 
	C316.680908,204.128830 316.387421,204.283585 316.016815,204.684784 
	C305.654419,212.495605 293.737061,210.843582 282.126678,210.909866 
	C280.148987,210.921158 278.170868,210.860672 275.749084,210.800461 
	C275.167389,194.148376 275.029572,177.529144 274.765381,160.454086 
	C274.728394,157.327042 274.817749,154.655823 274.903259,151.121170 
	C274.817657,148.454132 274.735901,146.650558 274.801270,144.546219 
	C275.084656,143.590759 275.220947,142.936050 275.791016,142.245300 
	C282.998962,142.187302 289.773560,142.111832 296.547150,142.164658 
	C300.255920,142.193573 302.973907,140.689423 304.461487,137.321243 
	C306.522003,132.655899 304.817505,125.560486 300.869263,121.596527 
	C297.283936,120.819916 293.768616,120.136017 290.247772,120.106529 
	C275.618164,119.983986 275.728760,120.057793 275.910156,105.366730 
	C275.953583,101.849342 277.065338,100.792740 280.516144,100.828667 
	C294.994507,100.979401 309.475372,100.890724 323.978119,101.370575 
	C324.009399,105.013809 324.018341,108.176193 324.026245,111.338585 
	C324.091125,137.298996 324.155823,163.259415 324.220581,189.219818 
	C324.220581,189.219818 324.263489,189.682739 323.867462,190.070938 
	C323.353424,191.345581 323.235413,192.232025 323.117401,193.118469 
	C323.111359,193.287872 323.105316,193.457275 322.758545,194.006744 
	C322.292389,194.904938 322.166962,195.423080 322.041534,195.941238 
	C322.041534,195.941238 322.056152,196.028442 321.776550,196.169922 
	C321.395813,196.646088 321.294647,196.980774 321.193420,197.315460 
	C320.468597,198.641327 319.743774,199.967209 318.975616,201.616669 
z"/>
<path fill="#FAFEFE" opacity="1.000000" stroke="none" 
	d="
M264.165985,213.006409 
	C264.768585,213.886566 265.391815,214.456238 265.399200,215.033783 
	C265.549469,226.801453 265.983643,238.584244 265.512085,250.329941 
	C265.366333,253.960098 261.558258,255.949692 257.656677,255.965042 
	C243.503540,256.020721 229.349258,256.080658 215.197113,255.951706 
	C209.655838,255.901184 206.266785,252.396942 206.172195,246.729019 
	C206.019394,237.573502 206.013870,228.411545 206.172852,219.256241 
	C206.274796,213.386230 209.737030,210.066147 215.699127,210.025330 
	C229.352341,209.931885 243.009064,209.867188 256.658234,210.120468 
	C259.087219,210.165527 261.486725,211.799393 264.165985,213.006409 
z"/>
<path fill="#18527A" opacity="1.000000" stroke="none" 
	d="
M69.405380,196.090759 
	C68.241638,200.508392 65.425179,202.065613 61.503864,202.066757 
	C50.858910,202.069824 40.213745,202.094528 29.569277,202.021561 
	C28.299900,202.012863 26.874840,201.726608 25.796198,201.098221 
	C22.248293,199.031342 20.664028,192.529083 22.292896,186.976837 
	C23.505901,182.842072 26.806337,181.257874 30.690847,181.195435 
	C40.667850,181.035049 50.655270,180.930908 60.626789,181.215408 
	C68.068817,181.427765 70.542450,185.768005 69.405380,196.090759 
z"/>
<path fill="#18527A" opacity="1.000000" stroke="none" 
	d="
M207.375793,188.679596 
	C208.540848,183.172333 212.088425,181.207748 216.893082,181.164368 
	C226.538055,181.077271 236.186310,181.018295 245.829468,181.176010 
	C252.974487,181.292862 255.176651,184.401505 255.014389,193.416626 
	C254.901688,199.676468 252.339676,202.047745 245.585068,202.064453 
	C236.937210,202.085861 228.289230,202.072525 219.641312,202.070786 
	C209.037949,202.068649 206.928040,199.849426 207.375793,188.679596 
z"/>
<path fill="#18527A" opacity="1.000000" stroke="none" 
	d="
M161.074738,181.133026 
	C168.894989,181.133743 176.227982,181.038269 183.557281,181.161499 
	C191.018784,181.286942 193.173355,184.078964 193.071136,193.037689 
	C192.991669,199.999725 190.876465,202.048904 183.645233,202.064804 
	C173.814575,202.086411 163.983521,202.118713 154.153275,202.051407 
	C148.314102,202.011429 146.079208,199.701492 145.918411,193.863251 
	C145.608932,182.626389 147.332047,181.130829 161.074738,181.133026 
z"/>
<path fill="#18527A" opacity="1.000000" stroke="none" 
	d="
M92.536194,181.145615 
	C102.313225,181.135986 111.646408,181.143173 120.979546,181.129684 
	C124.800911,181.124161 129.372879,181.558609 130.201553,185.464203 
	C131.142654,189.899628 130.282455,194.867523 129.380127,199.441132 
	C129.146194,200.626831 125.845627,201.903091 123.927200,201.945679 
	C113.099396,202.185959 102.262840,202.134766 91.430756,202.029541 
	C86.924248,201.985779 84.202614,199.022278 83.978340,194.426407 
	C83.509193,184.812637 84.675964,182.904114 92.536194,181.145615 
z"/>
<path fill="#CF4724" opacity="1.000000" stroke="none" 
	d="
M65.320740,228.075653 
	C68.142128,228.128616 70.970390,228.329956 73.783302,228.199783 
	C78.006134,228.004364 80.026466,230.160995 80.143211,234.086014 
	C80.320824,240.057129 80.327904,246.038330 80.211472,252.011414 
	C80.134979,255.936111 77.920067,258.223145 73.968513,258.311768 
	C67.994705,258.445801 62.013596,258.442474 56.039597,258.312805 
	C52.086311,258.227020 50.031769,255.929962 49.734447,252.024918 
	C49.596191,250.209015 49.464302,248.392654 49.447327,246.225647 
	C49.565121,245.874802 49.639660,245.824997 50.133118,245.811340 
	C53.612411,245.793030 56.598408,245.805984 59.584053,245.779312 
	C63.422356,245.745056 65.382027,243.982620 65.249054,239.947693 
	C65.118050,235.972626 65.257339,231.988663 65.294449,228.021393 
	C65.310852,228.034210 65.320740,228.075653 65.320740,228.075653 
z"/>
<path fill="#F3C918" opacity="1.000000" stroke="none" 
	d="
M49.639660,245.824997 
	C49.639660,245.824997 49.565121,245.874802 49.580948,245.884125 
	C36.562492,245.522919 35.275032,248.325333 35.332855,231.207474 
	C35.390728,214.074356 35.757210,216.168152 50.563499,216.091904 
	C51.724354,216.085922 52.885254,216.088623 54.046135,216.088425 
	C65.386383,216.086441 65.386383,216.086502 65.400604,227.638931 
	C65.320740,228.075653 65.310852,228.034210 64.813156,228.075378 
	C61.847340,228.160217 59.378864,228.189560 56.911160,228.250427 
	C51.548962,228.382690 50.330261,229.641434 50.148533,235.024765 
	C50.026955,238.626465 49.812534,242.225037 49.639660,245.824997 
z"/>
<path fill="#FBFCF7" opacity="1.000000" stroke="none" 
	d="
M89.462349,71.238937 
	C89.165291,62.707890 89.164268,54.383816 89.264030,46.060959 
	C89.350372,38.859055 92.841087,35.349884 100.049004,35.314590 
	C113.035103,35.250996 126.021744,35.304977 139.008133,35.287071 
	C144.261002,35.279827 148.018143,37.295013 149.470337,43.136963 
	C149.594162,43.555290 149.736588,43.748981 149.736588,43.748981 
	C149.708771,45.598549 149.680954,47.448120 149.630310,50.184391 
	C149.675369,54.977798 149.743271,58.884502 149.811157,62.791206 
	C149.774094,64.921097 149.737030,67.050980 149.728104,69.829483 
	C149.701126,70.776749 149.669830,71.077866 149.662384,71.381454 
	C129.708969,71.403122 109.755554,71.424789 89.462349,71.238937 
z"/>
<path fill="#94D4DC" opacity="1.000000" stroke="none" 
	d="
M275.357239,142.281342 
	C275.220947,142.936050 275.084656,143.590759 274.360199,144.584045 
	C263.291382,144.927582 252.810745,144.933945 242.330093,144.937302 
	C165.472153,144.961884 88.614220,144.985870 11.756288,145.010040 
	C11.792921,142.297775 11.829554,139.585480 11.909660,136.461166 
	C12.133664,136.032120 12.314193,136.015121 13.065128,136.303558 
	C15.613106,136.739304 17.590643,136.983047 19.568254,136.983643 
	C104.638733,137.009354 189.709213,137.013458 274.856873,137.454407 
	C275.075104,139.352829 275.216156,140.817093 275.357239,142.281342 
z"/>
<path fill="#C2B63E" opacity="1.000000" stroke="none" 
	d="
M150.008667,71.665588 
	C149.669830,71.077866 149.701126,70.776749 149.848969,70.270767 
	C182.363754,70.063210 214.786331,69.977005 247.207260,70.168541 
	C251.390442,70.193260 255.569672,71.633446 259.742493,72.459579 
	C264.051117,73.312592 268.337524,74.900444 272.654785,74.977089 
	C289.442810,75.275162 306.239166,75.100487 323.393738,75.472244 
	C322.070557,76.213089 320.387817,76.895584 318.701294,76.904930 
	C303.591309,76.988632 288.480621,76.943298 273.370239,76.968758 
	C271.699402,76.971573 270.028900,77.179695 267.368164,77.359512 
	C270.069244,80.532402 271.970856,82.766151 273.902283,85.362244 
	C274.613342,87.493736 275.294556,89.262863 275.977753,91.479637 
	C276.030090,99.045639 276.030090,99.045952 283.268799,99.046051 
	C295.340393,99.046219 307.412781,98.982025 319.482635,99.127296 
	C320.980377,99.145332 322.464752,100.275101 323.955322,100.889725 
	C309.475372,100.890724 294.994507,100.979401 280.516144,100.828667 
	C277.065338,100.792740 275.953583,101.849342 275.910156,105.366730 
	C275.728760,120.057793 275.618164,119.983986 290.247772,120.106529 
	C293.768616,120.136017 297.283936,120.819916 300.459930,121.589684 
	C291.803253,121.754730 283.488434,121.532951 275.173645,121.311172 
	C274.931854,114.366135 274.476440,107.420662 274.490387,100.476135 
	C274.525085,83.223038 264.253113,72.568520 247.121475,72.540337 
	C216.830795,72.490509 186.539948,72.533371 156.249237,72.496185 
	C154.284256,72.493774 152.319717,72.140038 150.008667,71.665588 
z"/>
<path fill="#20526E" opacity="1.000000" stroke="none" 
	d="
M275.112183,121.745468 
	C283.488434,121.532951 291.803253,121.754730 300.527344,121.983353 
	C304.817505,125.560486 306.522003,132.655899 304.461487,137.321243 
	C302.973907,140.689423 300.255920,142.193573 296.547150,142.164658 
	C289.773560,142.111832 282.998962,142.187302 275.791016,142.245300 
	C275.216156,140.817093 275.075104,139.352829 274.918945,137.222290 
	C274.903900,136.556015 274.845123,136.079391 274.845123,136.079391 
	C274.913666,131.446182 274.982178,126.812965 275.112183,121.745468 
z"/>
<path fill="#84D5DF" opacity="1.000000" stroke="none" 
	d="
M274.389221,136.048752 
	C274.845123,136.079391 274.903900,136.556015 274.841797,136.788116 
	C189.709213,137.013458 104.638733,137.009354 19.568254,136.983643 
	C17.590643,136.983047 15.613106,136.739304 13.336094,136.327148 
	C100.002205,136.036255 186.967758,136.027176 274.389221,136.048752 
z"/>
<path fill="#DEA535" opacity="1.000000" stroke="none" 
	d="
M273.872467,84.999893 
	C271.970856,82.766151 270.069244,80.532402 267.368164,77.359512 
	C270.028900,77.179695 271.699402,76.971573 273.370239,76.968758 
	C288.480621,76.943298 303.591309,76.988632 318.701294,76.904930 
	C320.387817,76.895584 322.070557,76.213089 323.860168,75.466843 
	C323.991272,61.317379 324.017303,47.543835 324.121216,33.293755 
	C324.489502,34.416847 325.032196,36.016247 325.033630,37.616138 
	C325.078125,86.597565 325.072235,135.579041 325.054596,184.560516 
	C325.054108,185.882965 324.837921,187.205338 324.471436,188.873779 
	C324.155823,163.259415 324.091125,137.298996 324.026245,111.338585 
	C324.018341,108.176193 324.009399,105.013809 323.978119,101.370575 
	C322.464752,100.275101 320.980377,99.145332 319.482635,99.127296 
	C307.412781,98.982025 295.340393,99.046219 283.268799,99.046051 
	C276.030090,99.045952 276.030090,99.045639 276.449036,91.472092 
	C291.058990,91.015465 305.199738,91.035912 319.340240,90.987724 
	C321.338928,90.980919 323.888855,91.761452 324.029816,88.222282 
	C324.181213,84.421120 321.556488,84.991394 319.288849,84.989784 
	C304.150055,84.979057 289.011261,84.993576 273.872467,84.999893 
z"/>
<path fill="#C2B63E" opacity="1.000000" stroke="none" 
	d="
M150.148285,62.572250 
	C149.743271,58.884502 149.675369,54.977798 149.706680,50.641296 
	C150.032394,54.258766 150.258896,58.306030 150.148285,62.572250 
z"/>
<path fill="#DEA535" opacity="1.000000" stroke="none" 
	d="
M323.037567,29.276995 
	C323.083374,28.938141 323.539978,28.971661 323.768311,28.987387 
	C324.041229,29.732199 324.085785,30.461285 324.075439,31.549732 
	C323.677612,31.144676 323.334686,30.380262 323.037567,29.276995 
z"/>
<path fill="#C2B63E" opacity="1.000000" stroke="none" 
	d="
M149.921692,43.758011 
	C149.736588,43.748981 149.594162,43.555290 149.643524,43.448463 
	C149.830841,43.483440 149.968826,43.625240 149.921692,43.758011 
z"/>
<path fill="#3DACB9" opacity="1.000000" stroke="none" 
	d="
M11.720135,145.436172 
	C88.614220,144.985870 165.472153,144.961884 242.330093,144.937302 
	C252.810745,144.933945 263.291382,144.927582 274.213104,144.884796 
	C274.735901,146.650558 274.817657,148.454132 274.771362,150.696304 
	C209.170883,151.108093 143.698425,151.082169 78.225960,151.054016 
	C56.401634,151.044632 34.577312,151.029526 12.266275,151.004105 
	C11.747702,149.281540 11.715841,147.571930 11.720135,145.436172 
z"/>
<path fill="#DEA535" opacity="1.000000" stroke="none" 
	d="
M323.343536,193.097610 
	C323.235413,192.232025 323.353424,191.345581 323.760254,190.277206 
	C324.035553,190.823776 324.022034,191.552277 324.014282,192.649384 
	C324.020050,193.018005 323.569672,193.076752 323.343536,193.097610 
z"/>
<path fill="#DEA535" opacity="1.000000" stroke="none" 
	d="
M322.290253,195.806839 
	C322.166962,195.423080 322.292389,194.904938 322.644531,194.234024 
	C322.760468,194.611649 322.649719,195.142044 322.290253,195.806839 
z"/>
<path fill="#DEA535" opacity="1.000000" stroke="none" 
	d="
M321.426025,197.180756 
	C321.294647,196.980774 321.395813,196.646088 321.735107,196.185287 
	C321.868347,196.388153 321.763458,196.717102 321.426025,197.180756 
z"/>
<path fill="#FEF7E9" opacity="1.000000" stroke="none" 
	d="
M50.133118,245.811340 
	C49.812534,242.225037 50.026955,238.626465 50.148533,235.024765 
	C50.330261,229.641434 51.548962,228.382690 56.911160,228.250427 
	C59.378864,228.189560 61.847340,228.160217 64.796753,228.062576 
	C65.257339,231.988663 65.118050,235.972626 65.249054,239.947693 
	C65.382027,243.982620 63.422356,245.745056 59.584053,245.779312 
	C56.598408,245.805984 53.612411,245.793030 50.133118,245.811340 
z"/>
<path fill="#EFC307" opacity="1.000000" stroke="none" 
	d="
M273.902283,85.362244 
	C289.011261,84.993576 304.150055,84.979057 319.288849,84.989784 
	C321.556488,84.991394 324.181213,84.421120 324.029816,88.222282 
	C323.888855,91.761452 321.338928,90.980919 319.340240,90.987724 
	C305.199738,91.035912 291.058990,91.015465 276.447052,91.024445 
	C275.294556,89.262863 274.613342,87.493736 273.902283,85.362244 
z"/>
</svg>